%FSTAX23Y23*%
%MOIN*%
%SFA1B1*%

%IPPOS*%
%ADD29C,0.010000*%
%ADD42C,0.003940*%
%ADD43C,0.009840*%
%ADD44C,0.007870*%
%ADD45C,0.007000*%
%LNcombine8-1*%
%LPD*%
G36*
X00964Y00501D02*
X00925D01*
Y00541*
X00964Y00501*
G37*
G54D29*
X00495Y0006D02*
Y001D01*
X00595Y0006D02*
Y001D01*
X00695Y0006D02*
Y001D01*
X00765Y0003D02*
X00795Y0006D01*
X00725Y0003D02*
X00765D01*
X00695Y0006D02*
X00725Y0003D01*
X00665D02*
X00695Y0006D01*
X00625Y0003D02*
X00665D01*
X00595Y0006D02*
X00625Y0003D01*
X00565D02*
X00595Y0006D01*
X00525Y0003D02*
X00565D01*
X00495Y0006D02*
X00525Y0003D01*
X00465D02*
X00495Y0006D01*
X00425Y0003D02*
X00465D01*
X00395Y0006D02*
X00425Y0003D01*
X00395Y0006D02*
Y001D01*
X00425Y0013*
X00465*
X00495Y001*
X00525Y0013*
X00565*
X00595Y001*
X00795Y0006D02*
Y001D01*
Y0006D02*
X00825Y0003D01*
X00865*
X00895Y0006*
Y001*
X00865Y0013D02*
X00895Y001D01*
X00825Y0013D02*
X00865D01*
X00795Y001D02*
X00825Y0013D01*
X00765D02*
X00795Y001D01*
X00725Y0013D02*
X00765D01*
X00695Y001D02*
X00725Y0013D01*
X00665D02*
X00695Y001D01*
X00625Y0013D02*
X00665D01*
X00595Y001D02*
X00625Y0013D01*
X00995Y0103D02*
X01025Y01D01*
X00955Y0103D02*
X00995D01*
X00925Y01D02*
X00955Y0103D01*
X00925Y0096D02*
Y01D01*
Y0096D02*
X00955Y0093D01*
X00995*
X01025Y0096*
X01225Y01D02*
X01255Y0103D01*
X01295*
X01325Y01*
X01355Y0103*
X01395*
X01425Y01*
X01455Y0103*
X01495*
X01525Y01*
Y0096D02*
Y01D01*
X01495Y0093D02*
X01525Y0096D01*
X01455Y0093D02*
X01495D01*
X01425Y0096D02*
X01455Y0093D01*
X01425Y0096D02*
Y01D01*
X01195Y0103D02*
X01225Y01D01*
X01155Y0103D02*
X01195D01*
X01125Y01D02*
X01155Y0103D01*
X01095D02*
X01125Y01D01*
X01055Y0103D02*
X01095D01*
X01025Y01D02*
X01055Y0103D01*
X01025Y0096D02*
Y01D01*
Y0096D02*
X01055Y0093D01*
X01095*
X01125Y0096*
X01155Y0093*
X01195*
X01225Y0096*
X01255Y0093*
X01295*
X01325Y0096*
X01355Y0093*
X01395*
X01425Y0096*
X01325D02*
Y01D01*
X01225Y0096D02*
Y01D01*
X01125Y0096D02*
Y01D01*
X01595Y0103D02*
X01625Y01D01*
X01555Y0103D02*
X01595D01*
X01525Y01D02*
X01555Y0103D01*
X01525Y0096D02*
Y01D01*
Y0096D02*
X01555Y0093D01*
X01595*
X01625Y0096*
X01825Y01D02*
X01855Y0103D01*
X01895*
X01925Y01*
X01955Y0103*
X01995*
X02025Y01*
X02055Y0103*
X02095*
X02125Y01*
Y0096D02*
Y01D01*
X02095Y0093D02*
X02125Y0096D01*
X02055Y0093D02*
X02095D01*
X02025Y0096D02*
X02055Y0093D01*
X02025Y0096D02*
Y01D01*
X01795Y0103D02*
X01825Y01D01*
X01755Y0103D02*
X01795D01*
X01725Y01D02*
X01755Y0103D01*
X01695D02*
X01725Y01D01*
X01655Y0103D02*
X01695D01*
X01625Y01D02*
X01655Y0103D01*
X01625Y0096D02*
Y01D01*
Y0096D02*
X01655Y0093D01*
X01695*
X01725Y0096*
X01755Y0093*
X01795*
X01825Y0096*
X01855Y0093*
X01895*
X01925Y0096*
X01955Y0093*
X01995*
X02025Y0096*
X01925D02*
Y01D01*
X01825Y0096D02*
Y01D01*
X01725Y0096D02*
Y01D01*
X01125Y0086D02*
Y009D01*
X01225Y0086D02*
Y009D01*
X01325Y0086D02*
Y009D01*
X01395Y0083D02*
X01425Y0086D01*
X01355Y0083D02*
X01395D01*
X01325Y0086D02*
X01355Y0083D01*
X01295D02*
X01325Y0086D01*
X01255Y0083D02*
X01295D01*
X01225Y0086D02*
X01255Y0083D01*
X01195D02*
X01225Y0086D01*
X01155Y0083D02*
X01195D01*
X01125Y0086D02*
X01155Y0083D01*
X01095D02*
X01125Y0086D01*
X01055Y0083D02*
X01095D01*
X01025Y0086D02*
X01055Y0083D01*
X01025Y0086D02*
Y009D01*
X01055Y0093*
X01095*
X01125Y009*
X01155Y0093*
X01195*
X01225Y009*
X01425Y0086D02*
Y009D01*
Y0086D02*
X01455Y0083D01*
X01495*
X01525Y0086*
Y009*
X01495Y0093D02*
X01525Y009D01*
X01455Y0093D02*
X01495D01*
X01425Y009D02*
X01455Y0093D01*
X01395D02*
X01425Y009D01*
X01355Y0093D02*
X01395D01*
X01325Y009D02*
X01355Y0093D01*
X01295D02*
X01325Y009D01*
X01255Y0093D02*
X01295D01*
X01225Y009D02*
X01255Y0093D01*
X01725Y0086D02*
Y009D01*
X01825Y0086D02*
Y009D01*
X01925Y0086D02*
Y009D01*
X01995Y0083D02*
X02025Y0086D01*
X01955Y0083D02*
X01995D01*
X01925Y0086D02*
X01955Y0083D01*
X01895D02*
X01925Y0086D01*
X01855Y0083D02*
X01895D01*
X01825Y0086D02*
X01855Y0083D01*
X01795D02*
X01825Y0086D01*
X01755Y0083D02*
X01795D01*
X01725Y0086D02*
X01755Y0083D01*
X01695D02*
X01725Y0086D01*
X01655Y0083D02*
X01695D01*
X01625Y0086D02*
X01655Y0083D01*
X01625Y0086D02*
Y009D01*
X01655Y0093*
X01695*
X01725Y009*
X01755Y0093*
X01795*
X01825Y009*
X02025Y0086D02*
Y009D01*
Y0086D02*
X02055Y0083D01*
X02095*
X02125Y0086*
Y009*
X02095Y0093D02*
X02125Y009D01*
X02055Y0093D02*
X02095D01*
X02025Y009D02*
X02055Y0093D01*
X01995D02*
X02025Y009D01*
X01955Y0093D02*
X01995D01*
X01925Y009D02*
X01955Y0093D01*
X01895D02*
X01925Y009D01*
X01855Y0093D02*
X01895D01*
X01825Y009D02*
X01855Y0093D01*
X00965Y0013D02*
X00995Y001D01*
X00925Y0013D02*
X00965D01*
X00895Y001D02*
X00925Y0013D01*
X00895Y0006D02*
Y001D01*
Y0006D02*
X00925Y0003D01*
X00965*
X00995Y0006*
X01195Y001D02*
X01225Y0013D01*
X01265*
X01295Y001*
X01325Y0013*
X01365*
X01395Y001*
X01425Y0013*
X01465*
X01495Y001*
Y0006D02*
Y001D01*
X01465Y0003D02*
X01495Y0006D01*
X01425Y0003D02*
X01465D01*
X01395Y0006D02*
X01425Y0003D01*
X01395Y0006D02*
Y001D01*
X01165Y0013D02*
X01195Y001D01*
X01125Y0013D02*
X01165D01*
X01095Y001D02*
X01125Y0013D01*
X01065D02*
X01095Y001D01*
X01025Y0013D02*
X01065D01*
X00995Y001D02*
X01025Y0013D01*
X00995Y0006D02*
Y001D01*
Y0006D02*
X01025Y0003D01*
X01065*
X01095Y0006*
X01125Y0003*
X01165*
X01195Y0006*
X01225Y0003*
X01265*
X01295Y0006*
X01325Y0003*
X01365*
X01395Y0006*
X01295D02*
Y001D01*
X01195Y0006D02*
Y001D01*
X01095Y0006D02*
Y001D01*
G54D42*
X00966Y0037D02*
D01*
X00966Y0037*
X00966Y0037*
X00966Y00371*
X00966Y00371*
X00966Y00371*
X00966Y00371*
X00966Y00371*
X00966Y00371*
X00965Y00371*
X00965Y00371*
X00965Y00372*
X00965Y00372*
X00965Y00372*
X00965Y00372*
X00965Y00372*
X00965Y00372*
X00965Y00372*
X00964Y00372*
X00964Y00372*
X00964Y00372*
X00964Y00372*
X00964Y00372*
X00964*
X00964Y00372*
X00964Y00372*
X00963Y00372*
X00963Y00372*
X00963Y00372*
X00963Y00372*
X00963Y00372*
X00963Y00372*
X00963Y00372*
X00963Y00372*
X00962Y00372*
X00962Y00371*
X00962Y00371*
X00962Y00371*
X00962Y00371*
X00962Y00371*
X00962Y00371*
X00962Y00371*
X00962Y00371*
X00962Y0037*
X00962Y0037*
X00962Y0037*
X00962Y0037*
X00962Y0037*
X00962Y0037*
X00962Y0037*
X00962Y00369*
X00962Y00369*
X00962Y00369*
X00962Y00369*
X00962Y00369*
X00962Y00369*
X00962Y00369*
X00963Y00369*
X00963Y00369*
X00963Y00369*
X00963Y00368*
X00963Y00368*
X00963Y00368*
X00963Y00368*
X00963Y00368*
X00964Y00368*
X00964Y00368*
X00964Y00368*
X00964*
X00964Y00368*
X00964Y00368*
X00964Y00368*
X00964Y00368*
X00965Y00368*
X00965Y00368*
X00965Y00368*
X00965Y00369*
X00965Y00369*
X00965Y00369*
X00965Y00369*
X00965Y00369*
X00965Y00369*
X00966Y00369*
X00966Y00369*
X00966Y00369*
X00966Y00369*
X00966Y0037*
X00966Y0037*
X00966Y0037*
X00966Y0037*
X00966Y0037*
X01025D02*
D01*
X01025Y0037*
X01025Y0037*
X01025Y00371*
X01025Y00371*
X01025Y00371*
X01025Y00371*
X01025Y00371*
X01025Y00371*
X01025Y00371*
X01024Y00371*
X01024Y00372*
X01024Y00372*
X01024Y00372*
X01024Y00372*
X01024Y00372*
X01024Y00372*
X01024Y00372*
X01024Y00372*
X01023Y00372*
X01023Y00372*
X01023Y00372*
X01023Y00372*
X01023*
X01023Y00372*
X01023Y00372*
X01022Y00372*
X01022Y00372*
X01022Y00372*
X01022Y00372*
X01022Y00372*
X01022Y00372*
X01022Y00372*
X01022Y00372*
X01022Y00372*
X01021Y00371*
X01021Y00371*
X01021Y00371*
X01021Y00371*
X01021Y00371*
X01021Y00371*
X01021Y00371*
X01021Y00371*
X01021Y0037*
X01021Y0037*
X01021Y0037*
X01021Y0037*
X01021Y0037*
X01021Y0037*
X01021Y0037*
X01021Y00369*
X01021Y00369*
X01021Y00369*
X01021Y00369*
X01021Y00369*
X01021Y00369*
X01022Y00369*
X01022Y00369*
X01022Y00369*
X01022Y00369*
X01022Y00368*
X01022Y00368*
X01022Y00368*
X01022Y00368*
X01022Y00368*
X01023Y00368*
X01023Y00368*
X01023Y00368*
X01023*
X01023Y00368*
X01023Y00368*
X01023Y00368*
X01024Y00368*
X01024Y00368*
X01024Y00368*
X01024Y00368*
X01024Y00369*
X01024Y00369*
X01024Y00369*
X01024Y00369*
X01024Y00369*
X01025Y00369*
X01025Y00369*
X01025Y00369*
X01025Y00369*
X01025Y00369*
X01025Y0037*
X01025Y0037*
X01025Y0037*
X01025Y0037*
X01025Y0037*
X01084D02*
D01*
X01084Y0037*
X01084Y0037*
X01084Y00371*
X01084Y00371*
X01084Y00371*
X01084Y00371*
X01084Y00371*
X01084Y00371*
X01084Y00371*
X01083Y00371*
X01083Y00372*
X01083Y00372*
X01083Y00372*
X01083Y00372*
X01083Y00372*
X01083Y00372*
X01083Y00372*
X01083Y00372*
X01082Y00372*
X01082Y00372*
X01082Y00372*
X01082Y00372*
X01082*
X01082Y00372*
X01082Y00372*
X01082Y00372*
X01081Y00372*
X01081Y00372*
X01081Y00372*
X01081Y00372*
X01081Y00372*
X01081Y00372*
X01081Y00372*
X01081Y00372*
X0108Y00371*
X0108Y00371*
X0108Y00371*
X0108Y00371*
X0108Y00371*
X0108Y00371*
X0108Y00371*
X0108Y00371*
X0108Y0037*
X0108Y0037*
X0108Y0037*
X0108Y0037*
X0108Y0037*
X0108Y0037*
X0108Y0037*
X0108Y00369*
X0108Y00369*
X0108Y00369*
X0108Y00369*
X0108Y00369*
X0108Y00369*
X01081Y00369*
X01081Y00369*
X01081Y00369*
X01081Y00369*
X01081Y00368*
X01081Y00368*
X01081Y00368*
X01081Y00368*
X01082Y00368*
X01082Y00368*
X01082Y00368*
X01082Y00368*
X01082*
X01082Y00368*
X01082Y00368*
X01082Y00368*
X01083Y00368*
X01083Y00368*
X01083Y00368*
X01083Y00368*
X01083Y00369*
X01083Y00369*
X01083Y00369*
X01083Y00369*
X01083Y00369*
X01084Y00369*
X01084Y00369*
X01084Y00369*
X01084Y00369*
X01084Y00369*
X01084Y0037*
X01084Y0037*
X01084Y0037*
X01084Y0037*
X01084Y0037*
X01726Y00272D02*
D01*
X01726Y00272*
X01726Y00272*
X01726Y00272*
X01726Y00272*
X01726Y00272*
X01725Y00272*
X01725Y00272*
X01725Y00272*
X01725Y00271*
X01725Y00271*
X01725Y00271*
X01725Y00271*
X01725Y00271*
X01725Y00271*
X01725Y00271*
X01725Y00271*
X01725Y0027*
X01725Y0027*
X01725Y0027*
X01725Y0027*
X01725Y0027*
X01725Y0027*
X01725Y0027*
X01725Y0027*
X01725Y00269*
X01725Y00269*
X01725Y00269*
X01725Y00269*
X01725Y00269*
X01725Y00269*
X01725Y00269*
X01725Y00269*
X01726Y00269*
X01726Y00268*
X01726Y00268*
X01726Y00268*
X01726Y00268*
X01726Y00268*
X01726Y00268*
X01726Y00268*
X01727Y00268*
X01727Y00268*
X01727Y00268*
X01727Y00268*
X01727Y00268*
X01727Y00268*
X01727Y00268*
X01727Y00268*
X01728Y00268*
X01728Y00269*
X01728Y00269*
X01728Y00269*
X01728Y00269*
X01728Y00269*
X01728Y00269*
X01728Y00269*
X01728Y00269*
X01728Y00269*
X01729Y00269*
X01729Y0027*
X01729Y0027*
X01729Y0027*
X01729Y0027*
X01729Y0027*
X01729Y0027*
X01729Y0027*
X01729Y00271*
X01729Y00271*
X01729Y00271*
X01728Y00271*
X01728Y00271*
X01728Y00271*
X01728Y00271*
X01728Y00271*
X01728Y00272*
X01728Y00272*
X01728Y00272*
X01728Y00272*
X01728Y00272*
X01728Y00272*
X01727Y00272*
X01727Y00272*
X01727Y00272*
X01727Y00272*
X01727Y00272*
X01727Y00272*
X01727Y00272*
X00907Y0037D02*
D01*
X00907Y0037*
X00907Y0037*
X00907Y00371*
X00907Y00371*
X00907Y00371*
X00907Y00371*
X00907Y00371*
X00906Y00371*
X00906Y00371*
X00906Y00371*
X00906Y00372*
X00906Y00372*
X00906Y00372*
X00906Y00372*
X00906Y00372*
X00906Y00372*
X00906Y00372*
X00905Y00372*
X00905Y00372*
X00905Y00372*
X00905Y00372*
X00905Y00372*
X00905*
X00905Y00372*
X00904Y00372*
X00904Y00372*
X00904Y00372*
X00904Y00372*
X00904Y00372*
X00904Y00372*
X00904Y00372*
X00904Y00372*
X00903Y00372*
X00903Y00372*
X00903Y00371*
X00903Y00371*
X00903Y00371*
X00903Y00371*
X00903Y00371*
X00903Y00371*
X00903Y00371*
X00903Y00371*
X00903Y0037*
X00903Y0037*
X00903Y0037*
X00903Y0037*
X00903Y0037*
X00903Y0037*
X00903Y0037*
X00903Y00369*
X00903Y00369*
X00903Y00369*
X00903Y00369*
X00903Y00369*
X00903Y00369*
X00903Y00369*
X00903Y00369*
X00904Y00369*
X00904Y00369*
X00904Y00368*
X00904Y00368*
X00904Y00368*
X00904Y00368*
X00904Y00368*
X00904Y00368*
X00905Y00368*
X00905Y00368*
X00905*
X00905Y00368*
X00905Y00368*
X00905Y00368*
X00905Y00368*
X00906Y00368*
X00906Y00368*
X00906Y00368*
X00906Y00369*
X00906Y00369*
X00906Y00369*
X00906Y00369*
X00906Y00369*
X00906Y00369*
X00906Y00369*
X00907Y00369*
X00907Y00369*
X00907Y00369*
X00907Y0037*
X00907Y0037*
X00907Y0037*
X00907Y0037*
X00907Y0037*
X01623Y00043D02*
D01*
X01623Y00043*
X01623Y00043*
X01623Y00043*
X01623Y00043*
X01623Y00043*
X01623Y00043*
X01623Y00044*
X01623Y00044*
X01622Y00044*
X01622Y00044*
X01622Y00044*
X01622Y00044*
X01622Y00044*
X01622Y00044*
X01622Y00044*
X01622Y00044*
X01622Y00044*
X01621Y00044*
X01621Y00045*
X01621Y00045*
X01621Y00045*
X01621Y00045*
X01621*
X01621Y00045*
X01621Y00045*
X0162Y00045*
X0162Y00044*
X0162Y00044*
X0162Y00044*
X0162Y00044*
X0162Y00044*
X0162Y00044*
X0162Y00044*
X01619Y00044*
X01619Y00044*
X01619Y00044*
X01619Y00044*
X01619Y00044*
X01619Y00043*
X01619Y00043*
X01619Y00043*
X01619Y00043*
X01619Y00043*
X01619Y00043*
X01619Y00043*
X01619Y00042*
X01619Y00042*
X01619Y00042*
X01619Y00042*
X01619Y00042*
X01619Y00042*
X01619Y00042*
X01619Y00042*
X01619Y00041*
X01619Y00041*
X01619Y00041*
X0162Y00041*
X0162Y00041*
X0162Y00041*
X0162Y00041*
X0162Y00041*
X0162Y00041*
X0162Y00041*
X0162Y00041*
X01621Y00041*
X01621Y00041*
X01621Y00041*
X01621*
X01621Y00041*
X01621Y00041*
X01621Y00041*
X01621Y00041*
X01622Y00041*
X01622Y00041*
X01622Y00041*
X01622Y00041*
X01622Y00041*
X01622Y00041*
X01622Y00041*
X01622Y00041*
X01622Y00041*
X01623Y00042*
X01623Y00042*
X01623Y00042*
X01623Y00042*
X01623Y00042*
X01623Y00042*
X01623Y00042*
X01623Y00042*
X01623Y00043*
G54D43*
X01879Y00198D02*
D01*
X01879Y00199*
X01879Y00199*
X01879Y00199*
X01879Y002*
X01879Y002*
X01879Y002*
X01879Y00201*
X01878Y00201*
X01878Y00201*
X01878Y00201*
X01878Y00202*
X01878Y00202*
X01877Y00202*
X01877Y00202*
X01877Y00203*
X01876Y00203*
X01876Y00203*
X01876Y00203*
X01875Y00203*
X01875Y00203*
X01875Y00203*
X01874Y00203*
X01874*
X01874Y00203*
X01873Y00203*
X01873Y00203*
X01873Y00203*
X01872Y00203*
X01872Y00203*
X01872Y00203*
X01872Y00202*
X01871Y00202*
X01871Y00202*
X01871Y00202*
X01871Y00201*
X0187Y00201*
X0187Y00201*
X0187Y00201*
X0187Y002*
X0187Y002*
X0187Y002*
X01869Y00199*
X01869Y00199*
X01869Y00199*
X01869Y00198*
X01869Y00198*
X01869Y00198*
X01869Y00197*
X0187Y00197*
X0187Y00197*
X0187Y00196*
X0187Y00196*
X0187Y00196*
X0187Y00195*
X01871Y00195*
X01871Y00195*
X01871Y00195*
X01871Y00194*
X01872Y00194*
X01872Y00194*
X01872Y00194*
X01872Y00194*
X01873Y00194*
X01873Y00194*
X01873Y00193*
X01874Y00193*
X01874Y00193*
X01874*
X01875Y00193*
X01875Y00193*
X01875Y00194*
X01876Y00194*
X01876Y00194*
X01876Y00194*
X01877Y00194*
X01877Y00194*
X01877Y00194*
X01878Y00195*
X01878Y00195*
X01878Y00195*
X01878Y00195*
X01878Y00196*
X01879Y00196*
X01879Y00196*
X01879Y00197*
X01879Y00197*
X01879Y00197*
X01879Y00198*
X01879Y00198*
X01879Y00198*
X00935Y00476D02*
D01*
X00935Y00476*
X00935Y00477*
X00935Y00477*
X00935Y00477*
X00935Y00478*
X00935Y00478*
X00935Y00478*
X00935Y00478*
X00934Y00479*
X00934Y00479*
X00934Y00479*
X00934Y0048*
X00933Y0048*
X00933Y0048*
X00933Y0048*
X00933Y0048*
X00932Y0048*
X00932Y00481*
X00932Y00481*
X00931Y00481*
X00931Y00481*
X00931Y00481*
X0093*
X0093Y00481*
X0093Y00481*
X00929Y00481*
X00929Y00481*
X00929Y0048*
X00928Y0048*
X00928Y0048*
X00928Y0048*
X00927Y0048*
X00927Y0048*
X00927Y00479*
X00927Y00479*
X00926Y00479*
X00926Y00478*
X00926Y00478*
X00926Y00478*
X00926Y00478*
X00926Y00477*
X00926Y00477*
X00926Y00477*
X00926Y00476*
X00925Y00476*
X00926Y00476*
X00926Y00475*
X00926Y00475*
X00926Y00475*
X00926Y00474*
X00926Y00474*
X00926Y00474*
X00926Y00473*
X00926Y00473*
X00927Y00473*
X00927Y00472*
X00927Y00472*
X00927Y00472*
X00928Y00472*
X00928Y00472*
X00928Y00471*
X00929Y00471*
X00929Y00471*
X00929Y00471*
X0093Y00471*
X0093Y00471*
X0093Y00471*
X00931*
X00931Y00471*
X00931Y00471*
X00932Y00471*
X00932Y00471*
X00932Y00471*
X00933Y00471*
X00933Y00472*
X00933Y00472*
X00933Y00472*
X00934Y00472*
X00934Y00472*
X00934Y00473*
X00934Y00473*
X00935Y00473*
X00935Y00474*
X00935Y00474*
X00935Y00474*
X00935Y00475*
X00935Y00475*
X00935Y00475*
X00935Y00476*
X00935Y00476*
X00815Y00707D02*
D01*
X00815Y00707*
X00815Y00707*
X00815Y00708*
X00815Y00708*
X00815Y00708*
X00815Y00709*
X00815Y00709*
X00814Y00709*
X00814Y0071*
X00814Y0071*
X00814Y0071*
X00814Y0071*
X00813Y00711*
X00813Y00711*
X00813Y00711*
X00812Y00711*
X00812Y00711*
X00812Y00711*
X00811Y00711*
X00811Y00712*
X00811Y00712*
X0081Y00712*
X0081*
X0081Y00712*
X00809Y00712*
X00809Y00711*
X00809Y00711*
X00808Y00711*
X00808Y00711*
X00808Y00711*
X00807Y00711*
X00807Y00711*
X00807Y0071*
X00807Y0071*
X00806Y0071*
X00806Y0071*
X00806Y00709*
X00806Y00709*
X00806Y00709*
X00806Y00708*
X00805Y00708*
X00805Y00708*
X00805Y00707*
X00805Y00707*
X00805Y00707*
X00805Y00706*
X00805Y00706*
X00805Y00706*
X00805Y00705*
X00806Y00705*
X00806Y00705*
X00806Y00704*
X00806Y00704*
X00806Y00704*
X00806Y00704*
X00807Y00703*
X00807Y00703*
X00807Y00703*
X00807Y00703*
X00808Y00702*
X00808Y00702*
X00808Y00702*
X00809Y00702*
X00809Y00702*
X00809Y00702*
X0081Y00702*
X0081Y00702*
X0081*
X00811Y00702*
X00811Y00702*
X00811Y00702*
X00812Y00702*
X00812Y00702*
X00812Y00702*
X00813Y00702*
X00813Y00703*
X00813Y00703*
X00814Y00703*
X00814Y00703*
X00814Y00704*
X00814Y00704*
X00814Y00704*
X00815Y00704*
X00815Y00705*
X00815Y00705*
X00815Y00705*
X00815Y00706*
X00815Y00706*
X00815Y00706*
X00815Y00707*
X01583Y0049D02*
D01*
X01583Y0049*
X01583Y00491*
X01583Y00491*
X01583Y00491*
X01582Y00492*
X01582Y00492*
X01582Y00492*
X01582Y00492*
X01582Y00493*
X01582Y00493*
X01581Y00493*
X01581Y00494*
X01581Y00494*
X01581Y00494*
X0158Y00494*
X0158Y00494*
X0158Y00494*
X01579Y00495*
X01579Y00495*
X01579Y00495*
X01578Y00495*
X01578Y00495*
X01578*
X01577Y00495*
X01577Y00495*
X01577Y00495*
X01576Y00495*
X01576Y00494*
X01576Y00494*
X01575Y00494*
X01575Y00494*
X01575Y00494*
X01575Y00494*
X01574Y00493*
X01574Y00493*
X01574Y00493*
X01574Y00492*
X01574Y00492*
X01573Y00492*
X01573Y00492*
X01573Y00491*
X01573Y00491*
X01573Y00491*
X01573Y0049*
X01573Y0049*
X01573Y0049*
X01573Y00489*
X01573Y00489*
X01573Y00488*
X01573Y00488*
X01573Y00488*
X01574Y00488*
X01574Y00487*
X01574Y00487*
X01574Y00487*
X01574Y00486*
X01575Y00486*
X01575Y00486*
X01575Y00486*
X01575Y00486*
X01576Y00485*
X01576Y00485*
X01576Y00485*
X01577Y00485*
X01577Y00485*
X01577Y00485*
X01578Y00485*
X01578*
X01578Y00485*
X01579Y00485*
X01579Y00485*
X01579Y00485*
X0158Y00485*
X0158Y00485*
X0158Y00486*
X01581Y00486*
X01581Y00486*
X01581Y00486*
X01581Y00486*
X01582Y00487*
X01582Y00487*
X01582Y00487*
X01582Y00488*
X01582Y00488*
X01582Y00488*
X01583Y00488*
X01583Y00489*
X01583Y00489*
X01583Y0049*
X01583Y0049*
G54D44*
X00668Y00768D02*
Y00771D01*
X00641Y00768D02*
Y00771D01*
X00247Y00968D02*
Y00972D01*
X0022Y00968D02*
Y00972D01*
X00067Y00968D02*
Y00972D01*
X0004Y00968D02*
Y00972D01*
X00695Y00237D02*
Y00241D01*
X00722Y00237D02*
Y00241D01*
Y00347D02*
Y00351D01*
X00695Y00347D02*
Y00351D01*
X01447Y00311D02*
Y00315D01*
X0142Y00311D02*
Y00315D01*
X01502Y00207D02*
X01506D01*
X01502Y00234D02*
X01506D01*
X00635Y00237D02*
Y00241D01*
X00662Y00237D02*
Y00241D01*
X00547Y00445D02*
X00551D01*
X00547Y00472D02*
X00551D01*
X00662Y00347D02*
Y00351D01*
X00635Y00347D02*
Y00351D01*
X01797Y00085D02*
Y00088D01*
X01825Y00085D02*
Y00088D01*
X01375Y0019D02*
X01379D01*
X01375Y00163D02*
X01379D01*
X01257D02*
X01261D01*
X01257Y0019D02*
X01261D01*
X01738Y00085D02*
Y00088D01*
X01766Y00085D02*
Y00088D01*
X01569Y00085D02*
Y00088D01*
X01541Y00085D02*
Y00088D01*
X01157Y00204D02*
Y00208D01*
X01184Y00204D02*
Y00208D01*
X00921Y00204D02*
Y00208D01*
X00948Y00204D02*
Y00208D01*
X0098Y00204D02*
Y00208D01*
X01007Y00204D02*
Y00208D01*
X01039Y00204D02*
Y00208D01*
X01066Y00204D02*
Y00208D01*
X01098Y00204D02*
Y00208D01*
X01125Y00204D02*
Y00208D01*
X00802Y00344D02*
Y00348D01*
X0083Y00344D02*
Y00348D01*
X00862Y00342D02*
Y00346D01*
X00889Y00342D02*
Y00346D01*
X0083Y00204D02*
Y00208D01*
X00802Y00204D02*
Y00208D01*
X00889Y00204D02*
Y00208D01*
X00862Y00204D02*
Y00208D01*
X01507Y00308D02*
Y00312D01*
X0148Y00308D02*
Y00312D01*
X00509Y00307D02*
Y00341D01*
Y0038D02*
Y0039D01*
X00604Y0038D02*
Y0039D01*
Y00307D02*
Y00317D01*
X019Y007D02*
Y0075D01*
Y00155D02*
X01943D01*
X019Y0075D02*
X01943D01*
X0212Y00155D02*
Y0075D01*
X02061D02*
X0212D01*
X02061Y00155D02*
X0212D01*
X019D02*
Y00204D01*
X01239Y00501D02*
Y00738D01*
X00925Y00501D02*
Y00738D01*
X01239*
X00925Y00501D02*
X01239D01*
X00925Y00541D02*
X00964Y00501D01*
X00816Y00508D02*
Y00534D01*
X0079Y00508D02*
X00816D01*
X00643D02*
Y00534D01*
Y00508D02*
X00669D01*
X00643Y00655D02*
Y00681D01*
X00669*
X00816Y00655D02*
Y00681D01*
X0079D02*
X00816D01*
X00591Y00765D02*
Y00769D01*
X00618Y00765D02*
Y00769D01*
G54D45*
X0161Y00298D02*
X01597D01*
X01593Y00295*
Y00288*
X01597Y00285*
X0161*
X01613Y00288*
Y00295*
X01607Y00292D02*
X01613Y00298D01*
Y00295D02*
X0161Y00298D01*
X01613Y00305D02*
Y00312D01*
Y00308*
X01593*
X01597Y00305*
X01488Y00386D02*
X01485Y00389D01*
X01478*
X01475Y00386*
Y00373*
X01478Y0037*
X01485*
X01488Y00373*
X01494Y0037D02*
X01501D01*
X01498*
Y00389*
X01494Y00386*
X01524Y00389D02*
X01511D01*
Y0038*
X01518Y00383*
X01521*
X01524Y0038*
Y00373*
X01521Y0037*
X01514*
X01511Y00373*
X01436Y00682D02*
Y00665D01*
X0144Y00662*
X01446*
X0145Y00665*
Y00682*
X01456Y00662D02*
X01463D01*
X0146*
Y00682*
X01456Y00678*
X00859Y0028D02*
Y003D01*
X00869*
X00873Y00296*
Y0029*
X00869Y00286*
X00859*
X00866D02*
X00873Y0028D01*
X00879D02*
X00886D01*
X00883*
Y003*
X00879Y00296*
X00896Y0028D02*
X00903D01*
X00899*
Y003*
X00896Y00296*
X008Y0028D02*
Y003D01*
X0081*
X00814Y00296*
Y0029*
X0081Y00286*
X008*
X00807D02*
X00814Y0028D01*
X0082D02*
X00827D01*
X00824*
Y003*
X0082Y00296*
X00837D02*
X0084Y003D01*
X00847*
X0085Y00296*
Y00283*
X00847Y0028*
X0084*
X00837Y00283*
Y00296*
X00859Y00418D02*
Y00438D01*
X00869*
X00873Y00434*
Y00428*
X00869Y00424*
X00859*
X00866D02*
X00873Y00418D01*
X00879Y00438D02*
X00893D01*
Y00434*
X00879Y00421*
Y00418*
X008Y0042D02*
Y0044D01*
X0081*
X00814Y00436*
Y0043*
X0081Y00426*
X008*
X00807D02*
X00814Y0042D01*
X00834Y0044D02*
X00827Y00436D01*
X0082Y0043*
Y00423*
X00824Y0042*
X0083*
X00834Y00423*
Y00426*
X0083Y0043*
X0082*
X01085Y00433D02*
Y00413D01*
X01095*
X01099Y00416*
Y00429*
X01095Y00433*
X01085*
X01115Y00413D02*
Y00433D01*
X01105Y00423*
X01119*
X01026Y00433D02*
Y00413D01*
X01036*
X0104Y00416*
Y00429*
X01036Y00433*
X01026*
X01046Y00429D02*
X0105Y00433D01*
X01056*
X0106Y00429*
Y00426*
X01056Y00423*
X01053*
X01056*
X0106Y00419*
Y00416*
X01056Y00413*
X0105*
X01046Y00416*
X00967Y00433D02*
Y00413D01*
X00977*
X00981Y00416*
Y00429*
X00977Y00433*
X00967*
X01001Y00413D02*
X00987D01*
X01001Y00426*
Y00429*
X00997Y00433*
X00991*
X00987Y00429*
X00908Y00433D02*
Y00413D01*
X00918*
X00922Y00416*
Y00429*
X00918Y00433*
X00908*
X00928Y00413D02*
X00935D01*
X00932*
Y00433*
X00928Y00429*
X0111Y00296D02*
X01106Y003D01*
X011*
X01096Y00296*
Y00283*
X011Y0028*
X01106*
X0111Y00283*
X01116Y0028D02*
X01123D01*
X0112*
Y003*
X01116Y00296*
X01133Y00283D02*
X01136Y0028D01*
X01143*
X01146Y00283*
Y00296*
X01143Y003*
X01136*
X01133Y00296*
Y00293*
X01136Y0029*
X01146*
X01051Y00296D02*
X01047Y003D01*
X01041*
X01037Y00296*
Y00283*
X01041Y0028*
X01047*
X01051Y00283*
X01057Y0028D02*
X01064D01*
X01061*
Y003*
X01057Y00296*
X01074D02*
X01077Y003D01*
X01084*
X01087Y00296*
Y00293*
X01084Y0029*
X01087Y00286*
Y00283*
X01084Y0028*
X01077*
X01074Y00283*
Y00286*
X01077Y0029*
X01074Y00293*
Y00296*
X01077Y0029D02*
X01084D01*
X00992Y00296D02*
X00988Y003D01*
X00982*
X00978Y00296*
Y00283*
X00982Y0028*
X00988*
X00992Y00283*
X00998Y0028D02*
X01005D01*
X01002*
Y003*
X00998Y00296*
X01015Y003D02*
X01028D01*
Y00296*
X01015Y00283*
Y0028*
X00932Y00296D02*
X00928Y003D01*
X00922*
X00918Y00296*
Y00283*
X00922Y0028*
X00928*
X00932Y00283*
X00938Y0028D02*
X00945D01*
X00942*
Y003*
X00938Y00296*
X00968Y003D02*
X00962Y00296D01*
X00955Y0029*
Y00283*
X00958Y0028*
X00965*
X00968Y00283*
Y00286*
X00965Y0029*
X00955*
X00338Y00929D02*
X00331D01*
X00335*
Y00913*
X00331Y0091*
X00328*
X00325Y00913*
X00358Y0091D02*
X00344D01*
X00358Y00923*
Y00926*
X00354Y00929*
X00348*
X00344Y00926*
X01263Y00291D02*
Y00271D01*
X01277*
X01283D02*
X0129D01*
X01287*
Y00291*
X01283Y00288*
X01338Y00287D02*
Y00267D01*
X01351*
X01371D02*
X01358D01*
X01371Y00281*
Y00284*
X01368Y00287*
X01361*
X01358Y00284*
X01614Y00205D02*
Y00185D01*
X01628*
X01648Y00205D02*
X01641Y00202D01*
X01634Y00195*
Y00188*
X01638Y00185*
X01644*
X01648Y00188*
Y00192*
X01644Y00195*
X01634*
X01174Y00296D02*
X01171Y00299D01*
X01164*
X01161Y00296*
Y00282*
X01164Y00279*
X01171*
X01174Y00282*
X01181Y00279D02*
X01188D01*
X01184*
Y00299*
X01181Y00296*
X01548Y00156D02*
X01545Y00159D01*
X01538*
X01535Y00156*
Y00143*
X01538Y0014*
X01545*
X01548Y00143*
X01568Y0014D02*
X01554D01*
X01568Y00153*
Y00156*
X01564Y00159*
X01558*
X01554Y00156*
X01574D02*
X01578Y00159D01*
X01584*
X01588Y00156*
Y00143*
X01584Y0014*
X01578*
X01574Y00143*
Y00156*
X01746Y00162D02*
X01742Y00166D01*
X01736*
X01732Y00162*
Y00149*
X01736Y00146*
X01742*
X01746Y00149*
X01766Y00146D02*
X01752D01*
X01766Y00159*
Y00162*
X01762Y00166*
X01756*
X01752Y00162*
X01772Y00146D02*
X01779D01*
X01776*
Y00166*
X01772Y00162*
X01634Y00028D02*
Y00014D01*
X01641Y00008*
X01647Y00014*
Y00028*
X01654Y00008D02*
X01661D01*
X01657*
Y00028*
X01654Y00024*
X01285Y00128D02*
X01289Y00124D01*
X01295*
X01299Y00128*
Y00141*
X01295Y00144*
X01289*
X01285Y00141*
X01265Y00144D02*
X01279D01*
X01265Y00131*
Y00128*
X01269Y00124*
X01275*
X01279Y00128*
X01401D02*
X01405Y00124D01*
X01411*
X01415Y00128*
Y00141*
X01411Y00144*
X01405*
X01401Y00141*
X01395Y00128D02*
X01391Y00124D01*
X01385*
X01381Y00128*
Y00131*
X01385Y00134*
X01388*
X01385*
X01381Y00138*
Y00141*
X01385Y00144*
X01391*
X01395Y00141*
X00885Y00482D02*
X00901D01*
X00905Y00485*
Y00492*
X00901Y00495*
X00885*
X00905Y00515D02*
Y00502D01*
X00891Y00515*
X00888*
X00885Y00512*
Y00505*
X00888Y00502*
X01888Y00781D02*
X01881D01*
X01884*
Y00764*
X01881Y00761*
X01878*
X01874Y00764*
X01894Y00761D02*
X01901D01*
X01898*
Y00781*
X01894Y00777*
X00883Y00007D02*
X00903D01*
X00893*
Y0002*
X00883*
X00903*
X00883Y0004D02*
X00886Y00033D01*
X00893Y00026*
X00899*
X00903Y0003*
Y00036*
X00899Y0004*
X00896*
X00893Y00036*
Y00026*
X00365Y0004D02*
X00385D01*
X00375*
Y00053*
X00365*
X00385*
X00369Y0006D02*
X00365Y00063D01*
Y0007*
X00369Y00073*
X00372*
X00375Y0007*
Y00067*
Y0007*
X00379Y00073*
X00382*
X00385Y0007*
Y00063*
X00382Y0006*
X01791Y00008D02*
Y00028D01*
X01801*
X01805Y00024*
Y00018*
X01801Y00014*
X01791*
X01798D02*
X01805Y00008D01*
X01811D02*
X01818D01*
X01815*
Y00028*
X01811Y00024*
X00105Y01029D02*
Y0101D01*
X00118*
X00134D02*
Y01029D01*
X00124Y0102*
X00138*
X00155Y01029D02*
Y0101D01*
X00168*
X00188Y01029D02*
X00174D01*
Y0102*
X00181Y01023*
X00184*
X00188Y0102*
Y01013*
X00184Y0101*
X00178*
X00174Y01013*
X00643Y00426D02*
X0064Y00429D01*
X00633*
X0063Y00426*
Y00413*
X00633Y0041*
X0064*
X00643Y00413*
X00649Y0041D02*
X00656D01*
X00653*
Y00429*
X00649Y00426*
X00666D02*
X00669Y00429D01*
X00676*
X00679Y00426*
Y00413*
X00676Y0041*
X00669*
X00666Y00413*
Y00426*
X00523Y00506D02*
X0052Y00509D01*
X00513*
X0051Y00506*
Y00493*
X00513Y0049*
X0052*
X00523Y00493*
X00529Y0049D02*
X00536D01*
X00533*
Y00509*
X00529Y00506*
X00546Y0049D02*
X00553D01*
X00549*
Y00509*
X00546Y00506*
X00646Y00163D02*
X0065Y0016D01*
X00656*
X0066Y00163*
Y00176*
X00656Y0018*
X0065*
X00646Y00176*
X0064Y0018D02*
X00633D01*
X00636*
Y0016*
X0064Y00163*
X0061Y0018D02*
X00623D01*
X0061Y00166*
Y00163*
X00613Y0016*
X0062*
X00623Y00163*
X01481Y00173D02*
X01485Y0017D01*
X01491*
X01495Y00173*
Y00186*
X01491Y0019*
X01485*
X01481Y00186*
X01475Y0019D02*
X01468D01*
X01471*
Y0017*
X01475Y00173*
X01458D02*
X01455Y0017D01*
X01448*
X01445Y00173*
Y00176*
X01448Y0018*
X01451*
X01448*
X01445Y00183*
Y00186*
X01448Y0019*
X01455*
X01458Y00186*
X01418Y00386D02*
X01415Y00389D01*
X01408*
X01405Y00386*
Y00373*
X01408Y0037*
X01415*
X01418Y00373*
X01424Y0037D02*
X01431D01*
X01428*
Y00389*
X01424Y00386*
X01451Y0037D02*
Y00389D01*
X01441Y0038*
X01454*
X0055Y0016D02*
Y0018D01*
X00536*
X0053Y00163D02*
X00526Y0016D01*
X0052*
X00516Y00163*
Y00166*
X0052Y0017*
X00523*
X0052*
X00516Y00173*
Y00176*
X0052Y0018*
X00526*
X0053Y00176*
X0069Y0041D02*
Y00429D01*
X007*
X00703Y00426*
Y0042*
X007Y00416*
X0069*
X00696D02*
X00703Y0041D01*
X00723D02*
X00709D01*
X00723Y00423*
Y00426*
X00719Y00429*
X00713*
X00709Y00426*
X0073Y0018D02*
Y0016D01*
X0072*
X00716Y00163*
Y0017*
X0072Y00173*
X0073*
X00723D02*
X00716Y0018D01*
X0071Y00163D02*
X00706Y0016D01*
X007*
X00696Y00163*
Y00166*
X007Y0017*
X00703*
X007*
X00696Y00173*
Y00176*
X007Y0018*
X00706*
X0071Y00176*
X00025Y0093D02*
X00005D01*
Y0094*
X00008Y00943*
X00015*
X00018Y0094*
Y0093*
Y00936D02*
X00025Y00943D01*
Y00959D02*
X00005D01*
X00015Y00949*
Y00963*
X00265Y0101D02*
X00284D01*
Y01*
X00281Y00996*
X00275*
X00271Y01*
Y0101*
Y01003D02*
X00265Y00996D01*
X00284Y00976D02*
Y0099D01*
X00275*
X00278Y00983*
Y0098*
X00275Y00976*
X00268*
X00265Y0098*
Y00986*
X00268Y0099*
X00638Y00873D02*
X00635Y0087D01*
Y00863*
X00638Y0086*
X00641*
X00645Y00863*
Y0087*
X00648Y00873*
X00651*
X00655Y0087*
Y00863*
X00651Y0086*
X00655Y00879D02*
Y00886D01*
Y00883*
X00635*
X00638Y00879*
X0048Y003D02*
X00496D01*
X005Y00303*
Y0031*
X00496Y00313*
X0048*
X00483Y00319D02*
X0048Y00323D01*
Y00329*
X00483Y00333*
X00486*
X0049Y00329*
Y00326*
Y00329*
X00493Y00333*
X00496*
X005Y00329*
Y00323*
X00496Y00319*
X00599Y00508D02*
X00616D01*
X00619Y00512*
Y00518*
X00616Y00522*
X00599*
X00619Y00538D02*
X00599D01*
X00609Y00528*
Y00542*
X00685Y00763D02*
Y00783D01*
X00695*
X00698Y0078*
Y00773*
X00695Y0077*
X00685*
X00691D02*
X00698Y00763D01*
X00705Y0078D02*
X00708Y00783D01*
X00715*
X00718Y0078*
Y00777*
X00715Y00773*
X00718Y0077*
Y00767*
X00715Y00763*
X00708*
X00705Y00767*
Y0077*
X00708Y00773*
X00705Y00777*
Y0078*
X00708Y00773D02*
X00715D01*
X00527Y00763D02*
Y00783D01*
X00537*
X0054Y0078*
Y00773*
X00537Y0077*
X00527*
X00534D02*
X0054Y00763D01*
X00547Y00767D02*
X0055Y00763D01*
X00557*
X0056Y00767*
Y0078*
X00557Y00783*
X0055*
X00547Y0078*
Y00777*
X0055Y00773*
X0056*
X01831Y00216D02*
Y00223D01*
Y00219*
X01811*
X01814Y00216*
X01831Y00649D02*
Y00635D01*
X01818Y00649*
X01814*
X01811Y00645*
Y00639*
X01814Y00635*
X01831Y00665D02*
X01811D01*
X01821Y00655*
Y00669*
M02*