%FSTAX23Y23*%
%MOIN*%
%SFA1B1*%

%IPPOS*%
%ADD28C,0.008000*%
%ADD30C,0.070870*%
%ADD32C,0.078740*%
%ADD33C,0.018000*%
%ADD34C,0.010000*%
%ADD37C,0.006000*%
%LNcombine8-1*%
%LPD*%
G54D28*
X00445Y0008D02*
X00545D01*
X00554Y00451D02*
X00576Y00429D01*
X00173Y00451D02*
X00554D01*
X00124Y005D02*
X00173Y00451D01*
X00402Y007D02*
X00784Y00318D01*
X00224Y007D02*
X00402D01*
X01175Y0088D02*
X0118D01*
X0156Y00033D02*
X01854Y00327D01*
X01045Y0008D02*
X01091Y00033D01*
X0156*
X00224Y003D02*
X00371D01*
X00373Y00299*
X00974*
X00993Y00279*
X0104Y00313D02*
X01077Y00276D01*
X00914Y00313D02*
X0104D01*
X00888Y00339D02*
X00914Y00313D01*
X00784Y00339D02*
X00888D01*
X01375Y0098D02*
X01426Y00928D01*
Y00676D02*
Y00928D01*
X00784Y00339D02*
X0081Y00313D01*
X01046D02*
X01064Y00295D01*
X01603*
X01728Y00933D02*
X01775Y0098D01*
X00964Y00337D02*
X015D01*
X01728Y00637D02*
Y00933D01*
Y00637D02*
X01745Y0062D01*
X01768*
X01728Y00531D02*
X0178Y00582D01*
X01564Y00501D02*
X01623D01*
X01928Y00933D02*
X01975Y0098D01*
X01788Y00619D02*
X018Y00607D01*
Y006D02*
Y00607D01*
X01713Y0056D02*
X01722Y00551D01*
X0169Y0056D02*
X01713D01*
X01722Y006D02*
X01732D01*
X01723Y00576D02*
X01727D01*
X012Y006D02*
X01314Y00486D01*
X01352*
X01291Y00469D02*
X01452D01*
X01469Y00489*
X0126Y0058D02*
Y00709D01*
X01257Y00582D02*
X0126Y00709D01*
X01257Y00582D02*
X0126Y0058D01*
X01245Y0008D02*
X01393Y00228D01*
X01655*
X01768Y0062D02*
X0178Y00608D01*
Y00582D02*
Y00608D01*
X0081Y00313D02*
X00914D01*
X0104D02*
X01046D01*
X01535Y00531D02*
X01564Y00501D01*
X01655Y00228D02*
X01683Y00257D01*
X01603Y00295D02*
X01654Y00345D01*
X01536Y0061D02*
X01561Y00635D01*
X01535Y0057D02*
X01535Y0057D01*
X01546Y00338D02*
Y00353D01*
X01666Y00473D02*
X01681D01*
X01702Y00459D02*
Y00511D01*
X0177Y00507D02*
X0181D01*
X01654Y00345D02*
Y0041D01*
X01659Y00416*
X01662*
X01674Y00427*
Y0043*
X01702Y00459*
X01683Y00257D02*
Y00416D01*
X01688Y00421*
Y00424*
X0177Y00507*
X01854Y00327D02*
Y00634D01*
X01928Y00868D02*
Y00933D01*
X0181Y00675D02*
X01814D01*
X01788Y00619D02*
Y00647D01*
X01802Y00631D02*
Y00655D01*
X01791Y00667D02*
X01802Y00655D01*
X01791Y00667D02*
Y00686D01*
X01777Y00659D02*
X01788Y00647D01*
X01777Y00659D02*
Y00717D01*
X01928Y00868*
X01791Y00686D02*
X01805Y007D01*
X01814Y00675D02*
X01854Y00634D01*
X01722Y00551D02*
X01729D01*
X01761Y00583*
Y006*
X0099Y00795D02*
X01075Y0088D01*
X0099Y00518D02*
Y00795D01*
X01023Y00561D02*
X01029Y00555D01*
X01265Y00495D02*
X01291Y00469D01*
X00999Y00415D02*
X0102Y00395D01*
X0126D02*
X01275Y0038D01*
X00999Y00415D02*
Y00477D01*
X00701Y00776D02*
X00999Y00477D01*
X00669Y00776D02*
X00701D01*
X0062Y00825D02*
X00669Y00776D01*
X00615Y00825D02*
X0062D01*
X01824Y00521D02*
Y0061D01*
X0181Y00507D02*
X01824Y00521D01*
X01802Y00631D02*
X01824Y0061D01*
X012Y006D02*
Y00737D01*
X0118Y00757D02*
X012Y00737D01*
X01029Y00555D02*
X0103D01*
Y00595D02*
X01195D01*
X012Y006*
X01181Y00495D02*
X01265D01*
X01178Y00492D02*
X01181Y00495D01*
X0099Y00518D02*
X01044Y00464D01*
X01244*
X0103Y00555D02*
X01092Y00492D01*
X01178*
X01535Y00551D02*
X01656D01*
X01415Y00622D02*
Y00625D01*
X01345Y00764D02*
X01407Y00826D01*
X01345Y00522D02*
Y00764D01*
X01415Y00622D02*
X01462Y00575D01*
X01472*
X01495Y00515D02*
Y00531D01*
X01425Y00576D02*
X0145Y00551D01*
X01425Y00576D02*
Y00585D01*
X01472Y00575D02*
X01476Y0057D01*
X01515Y00489D02*
Y00531D01*
X01366Y00615D02*
X01426Y00676D01*
X0102Y00395D02*
X0126D01*
X01694Y00531D02*
X01728D01*
X01686Y00522D02*
X01694Y00531D01*
X01665Y00522D02*
X01686D01*
X01546Y00353D02*
X01595Y00402D01*
X01575Y00429D02*
X01586Y0044D01*
X01603*
X015Y00337D02*
X01575Y00411D01*
Y00429*
X01595Y00402D02*
X01602D01*
X01616Y00415*
Y00422*
X01666Y00473*
X01623Y00501D02*
X01633Y00511D01*
X01603Y0044D02*
X01652Y00488D01*
Y0051*
X01665Y00522*
X01665Y00543D02*
Y00545D01*
X0168Y0057D02*
X0169Y0056D01*
X01535Y0057D02*
X0168D01*
X01663Y00659D02*
X01722Y006D01*
X01665Y00635D02*
X01723Y00576D01*
X01561Y00635D02*
X01665D01*
X0145Y00551D02*
X01456D01*
X01469Y00489D02*
X01495Y00515D01*
X01352Y00486D02*
X01387Y00521D01*
X01466D02*
X01476Y00531D01*
X01387Y00521D02*
X01466D01*
X01466Y0044D02*
X01515Y00489D01*
X01366Y00551D02*
Y00615D01*
X01495Y0059D02*
Y00602D01*
X01553Y00659*
X01663*
X01515Y0059D02*
Y00602D01*
X01523Y0061*
X01536*
X00022Y00999D02*
X00265D01*
X01656Y00551D02*
X01665Y00543D01*
X0118Y00757D02*
Y0088D01*
G54D30*
X00545Y0008D03*
X00445D03*
X01375Y0098D03*
X01775D03*
X01975D03*
X01175Y0088D03*
X01075D03*
X01245Y0008D03*
X01045D03*
G54D32*
X00124Y005D03*
X00224Y003D03*
Y007D03*
G54D33*
X00265Y00999D03*
X00576Y00429D03*
X00784Y00318D03*
X00993Y00279D03*
X01077Y00276D03*
X00784Y00339D03*
X01702Y00511D03*
X00964Y00337D03*
X01681Y00473D03*
X0099Y00518D03*
X01244Y00464D03*
X018Y006D03*
X01761D03*
X01732D03*
X01727Y00576D03*
X01345Y00522D03*
X01407Y00826D03*
X0126Y0058D03*
Y00709D03*
X01546Y00338D03*
X0181Y00675D03*
X01275Y0038D03*
X00615Y00825D03*
X01815Y007D03*
X00025Y00998D03*
X0103Y00555D03*
Y00595D03*
X01415Y00625D03*
X01425Y00585D03*
X01366Y00539D03*
X01633Y00511D03*
X01665Y00545D03*
X01466Y0044D03*
G54D34*
X01535Y00551D03*
X01515Y00531D03*
X01535Y00531D03*
X01535Y0057D03*
X01495Y00531D03*
X01476Y00551D03*
Y0057D03*
X01495Y0059D03*
X01456Y00551D03*
X01476Y00531D03*
X01515Y0059D03*
G54D37*
X01395Y00539D02*
X01397Y00537D01*
X0147Y00545D02*
Y00545D01*
X01476Y00551*
X01397Y00537D02*
X01462D01*
X0147Y00545*
X01377Y00539D02*
X01395D01*
X01366Y00551D02*
X01377Y00539D01*
M02*