%FSTAX23Y23*%
%MOIN*%
%SFA1B1*%

%IPPOS*%
%AMD17*
4,1,8,-0.004000,-0.008900,0.004000,-0.008900,0.005900,-0.006900,0.005900,0.006900,0.004000,0.008900,-0.004000,0.008900,-0.005900,0.006900,-0.005900,-0.006900,-0.004000,-0.008900,0.0*
1,1,0.003900,-0.004000,-0.006900*
1,1,0.003900,0.004000,-0.006900*
1,1,0.003900,0.004000,0.006900*
1,1,0.003900,-0.004000,0.006900*
%
%AMD18*
4,1,8,-0.031500,0.017700,-0.031500,-0.017700,-0.029500,-0.019700,0.029500,-0.019700,0.031500,-0.017700,0.031500,0.017700,0.029500,0.019700,-0.029500,0.019700,-0.031500,0.017700,0.0*
1,1,0.003940,-0.029500,0.017700*
1,1,0.003940,-0.029500,-0.017700*
1,1,0.003940,0.029500,-0.017700*
1,1,0.003940,0.029500,0.017700*
%
%ADD10R,0.035430X0.027560*%
%ADD11R,0.027560X0.035430*%
%ADD12R,0.031500X0.031500*%
%ADD13R,0.030320X0.038580*%
%ADD14R,0.027560X0.020470*%
%ADD15R,0.027560X0.041340*%
%ADD16R,0.033470X0.025590*%
G04~CAMADD=17~8~0.0~0.0~118.1~177.2~19.5~0.0~15~0.0~0.0~0.0~0.0~0~0.0~0.0~0.0~0.0~0~0.0~0.0~0.0~180.0~119.0~178.0*
%ADD17D17*%
G04~CAMADD=18~8~0.0~0.0~393.7~629.9~19.7~0.0~15~0.0~0.0~0.0~0.0~0~0.0~0.0~0.0~0.0~0~0.0~0.0~0.0~90.0~630.0~394.0*
%ADD18D18*%
%ADD19R,0.051180X0.011810*%
%ADD20R,0.086610X0.070870*%
%ADD21C,0.013780*%
%ADD22R,0.082680X0.082680*%
%ADD23O,0.011810X0.033470*%
%ADD24O,0.033470X0.011810*%
%ADD25R,0.027560X0.098430*%
%ADD26C,0.010630*%
%ADD27C,0.010240*%
%ADD28C,0.008000*%
%ADD29C,0.010000*%
%ADD30C,0.070870*%
%ADD31C,0.035430*%
%ADD32C,0.078740*%
%ADD33C,0.018000*%
%ADD34C,0.010000*%
%ADD35C,0.019690*%
%ADD36C,0.035430*%
%LNcombine8-1*%
%LPD*%
G54D10*
X00655Y00742D03*
Y00797D03*
X00234Y00943D03*
Y00998D03*
X00054Y00943D03*
Y00998D03*
X00709Y00266D03*
Y00211D03*
Y00321D03*
Y00376D03*
X01434Y0034D03*
Y00285D03*
X00649Y00211D03*
Y00266D03*
Y00376D03*
Y00321D03*
X01811Y00114D03*
Y00059D03*
X01752D03*
Y00114D03*
X01555D03*
Y00059D03*
X01171Y00179D03*
Y00234D03*
X00934Y00179D03*
Y00234D03*
X00993Y00179D03*
Y00234D03*
X01052Y00179D03*
Y00234D03*
X01112Y00179D03*
Y00234D03*
X00816Y00374D03*
Y00318D03*
X00875Y00372D03*
Y00316D03*
X00816Y00179D03*
Y00234D03*
X00875Y00179D03*
Y00234D03*
X01494Y00338D03*
Y00283D03*
X00605Y00795D03*
Y0074D03*
G54D11*
X01531Y0022D03*
X01476D03*
X00576Y00459D03*
X00521D03*
X0135Y00177D03*
X01405D03*
X01287D03*
X01232D03*
G54D12*
X00114Y0099D03*
Y00947D03*
X00174Y0099D03*
Y00947D03*
G54D13*
X01625Y00146D03*
X01682D03*
X01349Y00236D03*
X01405D03*
X01287D03*
X01231D03*
X00529Y00219D03*
X00585D03*
G54D14*
X00993Y0037D03*
X01052D03*
X01112D03*
X00934D03*
G54D15*
X00993Y00334D03*
X01052D03*
X01112D03*
X00934D03*
G54D16*
X01699Y00292D03*
X01646D03*
X01699Y00357D03*
X01646D03*
G54D17*
X00531Y0031D03*
X00556D03*
X00582D03*
Y00387D03*
X00556D03*
X00531D03*
G54D18*
X00556Y00349D03*
G54D19*
X01874Y00226D03*
Y00246D03*
Y00265D03*
Y00285D03*
Y00305D03*
Y00324D03*
Y00344D03*
Y00364D03*
Y00383D03*
Y00403D03*
Y00423D03*
Y00442D03*
Y00462D03*
Y00482D03*
Y00501D03*
Y00521D03*
Y00541D03*
Y00561D03*
Y0058D03*
Y006D03*
Y0062D03*
Y00639D03*
Y00659D03*
Y00679D03*
G54D20*
X02002Y00151D03*
Y00753D03*
G54D21*
X01161Y00698D03*
Y00659D03*
X01121Y0062D03*
Y0058D03*
Y00541D03*
X01082Y00698D03*
Y0062D03*
Y0058D03*
Y00541D03*
X01043Y00698D03*
Y00659D03*
Y0062D03*
Y0058D03*
Y00541D03*
X01003Y00698D03*
Y00659D03*
Y0062D03*
Y0058D03*
Y00541D03*
X01121Y00698D03*
Y00659D03*
X01082D03*
X01161Y0062D03*
Y0058D03*
Y00541D03*
G54D22*
X0073Y00595D03*
G54D23*
X00768Y00676D03*
X00742D03*
X00717D03*
X00691D03*
Y00513D03*
X00717D03*
X00742D03*
X00768D03*
G54D24*
X00648Y00633D03*
Y00607D03*
Y00582D03*
Y00556D03*
X00811D03*
Y00582D03*
Y00607D03*
Y00633D03*
G54D25*
X00853Y00901D03*
X00735D03*
X00676D03*
G54D26*
X01456Y0061D03*
X01476D03*
X01495D03*
X01515D03*
X01535D03*
X01554D03*
X01456Y0059D03*
X01476D03*
X01495D03*
X01515D03*
X01535D03*
X01554D03*
X01456Y0057D03*
X01476D03*
X01495D03*
X01515D03*
X01535D03*
X01554D03*
X01456Y00551D03*
X01476D03*
X01495D03*
X01515D03*
X01535D03*
X01554D03*
X01456Y00531D03*
X01476D03*
X01495D03*
X01515D03*
X01535D03*
X01554D03*
X01456Y00511D03*
X01476D03*
X01495D03*
X01515D03*
X01535D03*
X01554D03*
G54D27*
X01637Y00057D03*
Y00077D03*
X01654Y00067D03*
X01671Y00057D03*
Y00077D03*
G54D28*
X01555Y00059D02*
X01596Y00057D01*
X01637*
X01654Y0004D02*
X01671Y00057D01*
X01637D02*
X01654Y0004D01*
X01592Y00292D02*
X01646D01*
X01546Y00338D02*
X01592Y00292D01*
X01494Y00338D02*
X01546D01*
X01317Y00236D02*
X01349D01*
X01287D02*
X01317D01*
X01277Y00266D02*
X01287Y00255D01*
X01198Y00266D02*
X01277D01*
X0117Y00238D02*
X01198Y00266D01*
X0117Y00234D02*
X01171D01*
X01052Y0037D02*
X01112D01*
X00993D02*
X01052D01*
X00875Y00372D02*
X00903D01*
X00905Y0037*
X00934*
X01175Y0098D02*
X0122Y00934D01*
Y00797D02*
Y00934D01*
X01121Y00698D02*
X0122Y00797D01*
X01075Y0098D02*
X0112Y00934D01*
Y00861D02*
Y00934D01*
X01104Y00845D02*
X0112Y00861D01*
X01043Y0062D02*
X0106Y00636D01*
X01089*
X01106Y0062*
X01121*
Y0058D02*
Y0062D01*
X01434Y00285D02*
X01462D01*
X01465Y00283*
X01494*
X01287Y00177D02*
X0135D01*
X01287Y00157D02*
Y00177D01*
X01279Y00149D02*
X01287Y00157D01*
X01212Y00149D02*
X01279D01*
X01207Y00154D02*
X01212Y00149D01*
X01207Y00154D02*
Y00169D01*
X01197Y00179D02*
X01207Y00169D01*
X01171Y00179D02*
X01197D01*
X0114D02*
X01171D01*
X01112Y00179D02*
X0114Y00179D01*
X01052Y00179D02*
X01112D01*
X00993D02*
X01052D01*
X00934D02*
X00993D01*
X00875D02*
X00934D01*
X01874Y0062D02*
X01902D01*
X0191Y00612*
Y00587D02*
Y00612D01*
X01904Y0058D02*
X0191Y00587D01*
X01874Y0058D02*
X01904D01*
X01834Y00443D02*
X01834Y00442D01*
X02084Y0093D02*
X02107D01*
X0212Y00917*
Y00485D02*
Y00917D01*
X01874Y00305D02*
X0194D01*
X01052Y00234D02*
Y00334D01*
X01654Y00067D02*
Y00087D01*
X01625Y00115D02*
X01654Y00087D01*
X01625Y00115D02*
Y00146D01*
X01717Y00114D02*
X01752D01*
X01671Y00077D02*
X01717Y00114D01*
X01682Y00088D02*
Y00146D01*
X01671Y00077D02*
X01682Y00088D01*
X01231Y00206D02*
Y00236D01*
Y00206D02*
X01232Y00206D01*
Y00177D02*
Y00206D01*
X01405Y00206D02*
Y00236D01*
X01405Y00206D02*
X01405Y00206D01*
X01405Y00177D02*
Y00206D01*
X00529Y00219D02*
Y00263D01*
X00531Y00265*
Y0031*
X00649Y00321D02*
X00709D01*
X00174Y00947D02*
X00201D01*
X00206Y00943*
X00234*
X00054D02*
X00081D01*
X00086Y00947*
X00114*
X00556Y00387D02*
X00582D01*
X00649Y00376D02*
X00709D01*
Y00441*
X00717Y00449*
Y00513*
X00816Y00374D02*
X00844D01*
X00846Y00372*
X00875*
X00691Y00513D02*
X00717D01*
X00124Y004D02*
Y005D01*
X00709Y00321D02*
X00727D01*
X0074Y00308*
Y00224D02*
Y00308D01*
X00727Y00211D02*
X0074Y00224D01*
X00709Y00211D02*
X00727D01*
X00234Y00998D02*
X00265D01*
X00265Y00999*
X00576Y00429D02*
Y00459D01*
X00582Y0074D02*
X00605D01*
X00582Y00632D02*
Y0074D01*
Y00632D02*
X00607Y00607D01*
X00648*
X00691Y00513D02*
Y00518D01*
X00653Y00556D02*
X00691Y00518D01*
X01121Y00659D02*
X01137D01*
X01159Y00637*
X01787Y00403D02*
X01807Y00423D01*
X0176Y00269D02*
X01787Y00296D01*
X01646Y00275D02*
X01652Y00269D01*
X01646Y00275D02*
Y00292D01*
X01781Y00567D02*
X01794Y0058D01*
X01753Y00059D02*
X01806Y00114D01*
X01752Y00059D02*
X01753D01*
X01806Y00114D02*
X01811D01*
X01907Y00403D02*
X01914Y00411D01*
X01874Y00403D02*
X01907D01*
X01735Y00644D02*
X0175Y00659D01*
X0183Y00335D02*
X0184Y00324D01*
X01842Y00059D02*
X01842Y00059D01*
X01811Y00059D02*
X01842D01*
X01026Y00642D02*
X01043Y00659D01*
X00969Y00377D02*
X00976Y0037D01*
X00993*
X00996Y00642D02*
X01026D01*
X00957Y0037D02*
X00969Y00382D01*
X00934Y0037D02*
X00957D01*
X01925Y0093D02*
X01975Y0098D01*
X01925Y00861D02*
Y0093D01*
Y00861D02*
X01938Y00848D01*
Y00672D02*
Y00848D01*
X01874Y00383D02*
X0193D01*
X01907Y00462D02*
X01912Y00457D01*
Y00435D02*
Y00457D01*
Y00435D02*
X01917Y0043D01*
X0195*
X01924Y00664D02*
Y00761D01*
X01851Y00834D02*
X01924Y00761D01*
X01751Y00834D02*
X01851D01*
X01728Y00857D02*
X01751Y00834D01*
X01728Y00857D02*
Y00933D01*
X01775Y0098*
X01202Y00207D02*
X01231Y00236D01*
X01149Y00207D02*
X01202D01*
X01139Y00217D02*
X01149Y00207D01*
X01554Y00511D02*
X01554D01*
X01626Y00253D02*
X01801D01*
X01813Y00265*
X01847Y006D02*
X01874D01*
X01494Y00283D02*
X01505Y00272D01*
X01064Y00602D02*
X01082Y0062D01*
X02023Y00411D02*
Y00618D01*
X01874Y00344D02*
X01957D01*
X00709Y00376D02*
X00766D01*
X00768Y00374*
X00816*
X01639Y00364D02*
X01646Y00357D01*
X00957Y0021D02*
X00973Y00226D01*
X00882Y0021D02*
X00957D01*
X00875Y00217D02*
X00882Y0021D01*
X00875Y00234D02*
X00875D01*
X01052D02*
X01072D01*
X01077Y00239*
Y00276*
X00784Y00339D02*
X00804Y00318D01*
X00667Y00556D02*
X00677Y00566D01*
X01677Y00269D02*
X01756D01*
X01708Y00568D02*
Y00591D01*
X00576Y00459D02*
Y00497D01*
X00497Y00197D02*
Y00497D01*
Y00197D02*
X0052Y00174D01*
X00562*
X00585Y00197*
X00627Y00211D02*
X00649D01*
X00617Y00221D02*
X00627Y00211D01*
X00617Y00221D02*
Y00242D01*
X00676Y00838D02*
Y00901D01*
X00114Y0099D02*
X00129Y00975D01*
X00137*
X00143Y00969*
Y00927D02*
Y00969D01*
Y00927D02*
X00151Y00919D01*
X00361*
X0047Y01028*
X00731*
X00797Y00962*
Y00737D02*
Y00962D01*
X0135Y00156D02*
Y00177D01*
Y00156D02*
X01357Y00149D01*
X01448*
X01476Y00177*
Y0022*
X00601Y00654D02*
X0065Y00703D01*
X01349Y0034D02*
X01434D01*
X01138Y00616D02*
X01157Y00597D01*
X01138Y00616D02*
Y00632D01*
X01133Y00637D02*
X01138Y00632D01*
X01109Y00637D02*
X01133D01*
X01095Y00651D02*
X01109Y00637D01*
X0109Y00651D02*
X01095D01*
X00735Y00901D02*
Y00965D01*
X00617Y00582D02*
X00648D01*
X00784Y00331D02*
Y00339D01*
X00964Y00337D02*
X00977Y00324D01*
Y00318D02*
Y00324D01*
X00993Y00318D02*
Y00334D01*
X00964Y00242D02*
Y00337D01*
Y00242D02*
X00972Y00234D01*
X01139Y00465D02*
X01167Y00437D01*
X01126Y00465D02*
X01139D01*
X01112Y00451D02*
X01126Y00465D01*
X01287Y00236D02*
Y00255D01*
X01535Y00501D02*
Y00511D01*
X01003Y00659D02*
X01025Y00681D01*
X00934Y00234D02*
Y00334D01*
X00742Y00676D02*
Y00707D01*
X01607Y00184D02*
X01778D01*
X01587Y00164D02*
X01607Y00184D01*
X01587Y00126D02*
Y00164D01*
Y00126D02*
X01637Y00077D01*
X01555Y00152D02*
X01587Y00184D01*
X01494Y00283D02*
X01529D01*
X01555Y00257*
X01555Y00114D02*
X01555D01*
X01478Y00338D02*
X01494D01*
X0145Y0031D02*
X01478Y00338D01*
X01393Y0031D02*
X0145D01*
X01349Y00266D02*
X01393Y0031D01*
X01349Y00236D02*
Y00266D01*
X00582Y00379D02*
Y00387D01*
X00598Y00379D02*
X00631Y00346D01*
X00737*
X00754Y00329*
Y00207D02*
Y00329D01*
X00727Y0018D02*
X00754Y00207D01*
X00666Y0018D02*
X00727D01*
X00649Y00197D02*
X00666Y0018D01*
X00649Y00197D02*
Y00211D01*
X00582Y0031D02*
X00593Y00321D01*
X00649*
X01531Y00172D02*
Y0022D01*
X0149Y0013D02*
X01531Y00172D01*
X0149Y00057D02*
Y0013D01*
X01467Y00034D02*
X0149Y00057D01*
X00515Y00034D02*
X01467D01*
X00492Y00057D02*
X00515Y00034D01*
X00492Y00057D02*
Y00157D01*
X00483Y00166D02*
X00492Y00157D01*
X00483Y00166D02*
Y00672D01*
X00575Y00764*
X00643*
X0065Y00757*
Y00742D02*
X00655D01*
X01405Y00236D02*
X01424Y00254D01*
X01761Y006D02*
X018D01*
X01144Y00676D02*
X0136D01*
X01121Y00698D02*
X01144Y00676D01*
X01043Y0058D02*
D01*
X00619Y00633D02*
X00648D01*
X00617Y00635D02*
X00619Y00633D01*
X00174Y0099D02*
X0022Y01036D01*
X00629Y00376D02*
X00649D01*
X00576Y00429D02*
X00629Y00376D01*
X01671Y00057D02*
X01696Y00032D01*
X0189*
X00545Y0008D02*
X00585Y0012D01*
X00797Y00234D02*
X00816D01*
X00774Y00257D02*
X00797Y00234D01*
X00774Y00257D02*
Y00276D01*
X01335Y00532D02*
X01345Y00522D01*
X01407Y00826D02*
Y00848D01*
X0142Y00861*
Y00925*
X01475Y0098*
X01275Y00944D02*
X0132Y00898D01*
X0126Y00709D02*
X0132Y00769D01*
X01257Y00582D02*
X0126Y0058D01*
X01275Y00944D02*
Y0098D01*
X0132Y00769D02*
Y00898D01*
X01065Y00676D02*
X01082Y00659D01*
X01189Y00416D02*
X01197Y00408D01*
X0133D02*
X01354Y00384D01*
X01811Y00114D02*
Y00217D01*
X01874Y00639D02*
X01913D01*
X01758Y00629D02*
X01769Y0064D01*
X00993Y00279D02*
Y00318D01*
X01112D02*
Y00334D01*
Y00234D02*
X01112D01*
X00852Y00264D02*
X00857Y00316D01*
X00875*
X00917D02*
X00934Y00334D01*
X00875Y00316D02*
X00917D01*
X01683Y0053D02*
X01702Y00511D01*
X01407Y00787D02*
X01582D01*
X01675Y0088*
X00585Y0012D02*
Y00197D01*
Y00219*
X00969Y00377D02*
Y00382D01*
X00648Y00556D02*
X00653D01*
X00667*
X01652Y00269D02*
X01677D01*
X01757*
X0176*
X01677D02*
X01677Y00269D01*
X01756D02*
X01757Y00269D01*
X01787Y00305D02*
X01807Y00285D01*
X01787Y00296D02*
Y00305D01*
X01167Y00437D02*
Y00437D01*
X01784Y004D02*
X01787Y00403D01*
X01555Y00152D02*
Y00257D01*
X01587Y00184D02*
X01607D01*
X01778D02*
X01811Y00217D01*
X01658Y0057D02*
X01686D01*
X00972Y00234D02*
X00973D01*
X00993*
Y00279*
X01112Y00234D02*
Y00234D01*
X00784Y00318D02*
X00797D01*
X00804D02*
X00816D01*
X00797D02*
X00804D01*
X02023Y00411D02*
X02066Y00453D01*
X01957Y00344D02*
X02023Y00411D01*
X01582Y00787D02*
X01633D01*
X00986Y00322D02*
D01*
X00742Y00513D02*
Y00537D01*
X00748Y00543*
X00775*
X00784Y00534*
X00682Y00649D02*
X00757D01*
X00768Y00659*
Y00676*
X00842Y00607D02*
X00842Y00608D01*
X00811Y00607D02*
X00842D01*
X01104Y00676D02*
X01121Y00659D01*
X01104Y00676D02*
Y00845D01*
X00975Y00889D02*
Y0098D01*
X01065Y00676D02*
Y00798D01*
X00975Y00889D02*
X01065Y00798D01*
X01476Y0022D02*
Y00235D01*
X01493D02*
X01505Y00246D01*
Y00272*
X01424Y00254D02*
X01486D01*
X01476Y0061D02*
Y00649D01*
X01535Y0061D02*
Y00617D01*
X01515Y0061D02*
Y00627D01*
X01531Y00644*
X01554Y0061D02*
X01559Y00615D01*
X01535Y00531D02*
X01535Y00531D01*
X01354Y00384D02*
X01675D01*
X01699Y00357D02*
Y0037D01*
X01675Y00384D02*
X01688Y0037D01*
X01635Y0041D02*
X01669D01*
X01694Y00384*
X01724*
X01737Y00371*
X01765*
X01787Y00305D02*
Y00403D01*
X01784Y00308D02*
Y00364D01*
X01785Y00364*
X01784Y00384D02*
X01785Y00384D01*
X01784Y00384D02*
Y004D01*
X01785Y00364D02*
Y00384D01*
X01757Y00269D02*
X01785Y00297D01*
X01765Y00371D02*
X01766Y00372D01*
X01785Y00297D02*
Y00307D01*
Y00364*
X01784Y00308D02*
X01785Y00307D01*
X01787Y00305*
X01784Y00384D02*
X01784Y00384D01*
X01574Y00451D02*
Y00491D01*
X01535Y00501D02*
X01554Y00482D01*
X01535Y00617D02*
X01547Y0063D01*
X01535Y0057D02*
Y0057D01*
X01646Y00292D02*
Y003D01*
X018Y00526D02*
X01815Y00541D01*
X0182Y00482D02*
X01874D01*
X0184Y00246D02*
X01874D01*
X01811Y00217D02*
X0184Y00246D01*
X01834Y00442D02*
X01874D01*
X01815Y00541D02*
X01874D01*
X01813Y00265D02*
X01874D01*
X01807Y00423D02*
X01874D01*
X01807Y00285D02*
X01874D01*
X0183Y00364D02*
X01874D01*
X0184Y00324D02*
X01874D01*
X01686Y0057D02*
X01746Y00511D01*
X01708Y00568D02*
X0177Y00506D01*
X01781Y00517D02*
Y00567D01*
Y00517D02*
X01796Y00501D01*
X01874*
X01702Y00403D02*
X01729D01*
X0175Y00395D02*
Y00404D01*
X01766Y00372D02*
Y00376D01*
X01801Y00336D02*
X01833Y00305D01*
X01801Y00336D02*
Y00383D01*
X01815Y00397*
X01743Y00133D02*
X01745Y00135D01*
X0175Y0013*
X01902Y00285D02*
X0191Y00277D01*
X0189Y00032D02*
X0191Y00052D01*
Y00277*
X0175Y00404D02*
X01756Y00411D01*
X01729Y00403D02*
X01742Y00416D01*
X01756Y00432D02*
Y00447D01*
X01742Y00426D02*
Y00453D01*
X01746Y00457*
Y00511*
X01742Y00426D02*
X01742Y00425D01*
X01756Y00432D02*
X01756Y00431D01*
X0177Y00462D02*
Y00506D01*
X01756Y00447D02*
X0177Y00462D01*
X01756Y00411D02*
Y00431D01*
X01742Y00416D02*
Y00425D01*
X01775Y0044D02*
X01785D01*
X0166Y0043D02*
X0172D01*
X01655Y00435D02*
X0166Y0043D01*
X01825Y00623D02*
X01847Y006D01*
X0175Y00659D02*
X01825D01*
Y00623D02*
Y00659D01*
Y00664*
X01814Y00675D02*
X01825Y00664D01*
X0181Y00675D02*
X01814D01*
X01839Y00629D02*
X01848Y0062D01*
X01839Y00629D02*
Y0067D01*
X00811Y00557D02*
X00811Y00556D01*
X00767Y00557D02*
X00811D01*
X0073Y00595D02*
X00767Y00557D01*
X00811Y00556D02*
X00831D01*
X00845Y0057*
X00784Y00534D02*
X00838D01*
X00864Y00559D02*
Y0067D01*
X00838Y00534D02*
X00864Y00559D01*
X00797Y00737D02*
X00864Y0067D01*
X0103Y00554D02*
X01043Y00541D01*
X01023Y00561D02*
X01029Y00555D01*
X01082Y00542D02*
X011Y0056D01*
X01082Y00541D02*
Y00542D01*
X01139Y00217D02*
Y00248D01*
X01112Y00234D02*
Y00257D01*
X01112Y00257*
X01125Y0027*
X0131Y0038D02*
X01349Y0034D01*
X01275Y0038D02*
X0131D01*
X01112Y0037D02*
Y00451D01*
X01167Y00376D02*
X01277Y00266D01*
X01167Y00376D02*
Y00437D01*
X01139Y00418D02*
X01144Y00413D01*
X01139Y00248D02*
X01144Y00252D01*
Y00413*
X00677Y00644D02*
X00682Y00649D01*
X00677Y00566D02*
Y00644D01*
X00655Y00797D02*
X00657Y00795D01*
X00615Y00805D02*
Y00825D01*
X00605Y00795D02*
X00615Y00805D01*
X01806Y00561D02*
X01874D01*
X01805Y0056D02*
X01806Y00561D01*
X01874Y00521D02*
X019D01*
X01874Y00561D02*
X01878Y00564D01*
X0183Y00678D02*
X01839Y0067D01*
X0183Y00678D02*
D01*
X01834Y00682D01*
X01822Y00719D02*
X01834Y00707D01*
Y00682D02*
Y00707D01*
X01634Y00719D02*
X01822D01*
X01729Y00658D02*
X01771Y007D01*
X01815*
X01785Y0044D02*
X01807Y00462D01*
X01874*
X01848Y0062D02*
X01874D01*
X01794Y0058D02*
X01874D01*
Y00462D02*
X01907D01*
X01874Y00285D02*
X01902D01*
X01833Y00305D02*
X01874D01*
X0194D02*
X0212Y00485D01*
X02066Y00453D02*
Y0062D01*
X00025Y00998D02*
X00054D01*
X01082Y00659D02*
X0109Y00651D01*
X01064Y00535D02*
Y00602D01*
X0103Y00554D02*
Y00555D01*
X01029D02*
X0103D01*
X00969Y00616D02*
X00996Y00642D01*
X00986Y00521D02*
X0099Y00518D01*
X00969Y00382D02*
Y00616D01*
X00986Y00521D02*
Y00603D01*
X01003Y0062*
X0103Y00595D02*
X01043Y00581D01*
X0117Y00511D02*
X01245Y00436D01*
X01159Y00637D02*
X01182D01*
X01161Y0062D02*
X01174D01*
X01157Y00597D02*
X01172D01*
X01121Y00483D02*
X01167Y00437D01*
X01182Y00637D02*
X01217Y00602D01*
X01174Y0062D02*
X01212Y00582D01*
X01257*
X01172Y00597D02*
X01209Y00561D01*
X01161Y0058D02*
X01194Y00547D01*
X01121Y0058D02*
X01143Y00558D01*
X01161Y00541D02*
X0117Y00532D01*
X01335*
X01143Y00482D02*
Y00558D01*
X01121Y00483D02*
Y00541D01*
X01064Y00535D02*
X01077Y00522D01*
X01092*
X019Y00521D02*
X0192Y0054D01*
X0192Y0054*
X01935*
X01982Y00435D02*
Y00629D01*
X01968Y00447D02*
Y00621D01*
X01937Y00564D02*
X01954Y00547D01*
Y0047D02*
Y00547D01*
X01933Y0045D02*
X01954Y0047D01*
X01878Y00564D02*
X01937D01*
X0195Y0043D02*
X01968Y00447D01*
X01924Y00664D02*
X01968Y00621D01*
X0193Y00383D02*
X01982Y00435D01*
X01938Y00672D02*
X01982Y00629D01*
X00662Y008D02*
X00685D01*
X00497Y00497D02*
X00576D01*
X006Y0079D02*
X00605Y00795D01*
X01554Y00531D02*
X01573D01*
X01631Y00473D02*
X01681D01*
X01495Y0064D02*
X01513Y00658D01*
X0136Y00676D02*
X01412Y00625D01*
X01456Y00498D02*
Y00511D01*
X01515Y0055D02*
X01515Y00551D01*
X01419Y0058D02*
X01424Y00585D01*
X01403Y00565D02*
X01407Y00561D01*
X01411*
X01412Y00625D02*
X01415D01*
X01411Y00561D02*
X01413Y00562D01*
X01416Y00531D02*
X01456D01*
X01431Y00605D02*
X01444Y00592D01*
Y00592D02*
Y00592D01*
Y00592D02*
X01445Y0059D01*
X01456*
X0126Y0058D02*
X01419D01*
X01217Y00602D02*
X01407D01*
X01411Y00605*
X01431*
X01424Y00585D02*
X01425D01*
X01413Y00562D02*
X01443D01*
X01448Y00567*
X01456D02*
Y0057D01*
X01495Y00551D02*
Y0057D01*
Y0061D02*
Y0064D01*
X01495Y0064D02*
X01495Y0064D01*
X01456Y0061D02*
X01456Y0061D01*
X01384Y00565D02*
X01403D01*
X01209Y00561D02*
X0138D01*
X01384Y00565*
X01346Y0052D02*
X01405D01*
X01345Y00522D02*
X01346Y0052D01*
X01405D02*
X01416Y00531D01*
X01143Y00482D02*
X01189Y00436D01*
Y00416D02*
Y00436D01*
X01197Y00408D02*
X0133D01*
X01554Y0057D02*
X01602D01*
X01612Y00561*
X01658Y0057D02*
X01678Y0059D01*
X01554Y00551D02*
X01602D01*
X01623Y0053*
X01554Y0059D02*
X01603D01*
X01618Y00575*
X01515Y0057D02*
Y0057D01*
X0159Y00476D02*
X01598D01*
X01554Y00511D02*
X0159Y00476D01*
X01673Y00503D02*
X01677D01*
X017Y00481*
Y00465D02*
Y00481D01*
X01689Y00454D02*
X017Y00465D01*
X0162Y00454D02*
X01689D01*
X01585Y0036D02*
X01635D01*
X01594Y00421D02*
Y00429D01*
X0162Y00454*
X01573Y00531D02*
X01631Y00473D01*
X01673Y00503D02*
X01673D01*
X01672Y00526D02*
X01677Y0053D01*
X01683*
X01649Y00561D02*
X01658Y0057D01*
X01623Y0053D02*
X01652D01*
X01657Y00526*
X01672*
X01689Y00676D02*
X01692Y00679D01*
X01472Y00669D02*
X01495D01*
X01476Y00649D02*
X01495Y00669D01*
X01505Y00679*
X01456Y0061D02*
Y00625D01*
X01612Y00561D02*
X01649D01*
X01662Y00609D02*
X0169D01*
X01708Y00591*
X01678Y0059D02*
X01681D01*
X01618Y00575D02*
X01633D01*
X01644Y00586*
Y00592*
X01662Y00609*
X0161Y00695D02*
X01634Y00719D01*
X01505Y00679D02*
X01594D01*
X01597Y00676*
X01689*
X01513Y00658D02*
X01729D01*
X01531Y00644D02*
X01735D01*
X01547Y0063D02*
X01584D01*
X01584Y00629*
X01758*
X01564Y0061D02*
X016D01*
X01244Y00464D02*
X01443D01*
X01452Y00473D02*
X01476Y00496D01*
X01443Y00464D02*
X01452Y00473D01*
X01452*
X01458Y00459D02*
X01495Y00496D01*
X01435Y00436D02*
X01457Y00459D01*
X01458*
X01476Y00496D02*
Y00511D01*
X01495Y00496D02*
Y00511D01*
X01445Y00501D02*
X01456Y00511D01*
X01445Y00493D02*
Y00498D01*
Y00501*
X01552Y00429D02*
X01574Y00451D01*
X01515Y00462D02*
Y00511D01*
X0143Y00415D02*
X01467D01*
X01515Y00462*
X01245Y00436D02*
X01378D01*
X01381Y0044*
X01397*
X01401Y00436*
X01435*
X01194Y00547D02*
X01358D01*
X01366Y00539*
X01535Y0059D02*
Y0059D01*
X01448Y00567D02*
X01456D01*
X01554Y00511D02*
X01574Y00491D01*
X01407Y00498D02*
X01445D01*
X01456*
X00657Y00795D02*
X00662Y008D01*
X00582Y00379D02*
X00598D01*
X00784Y00331D02*
X00797Y00318D01*
X0065Y00703D02*
Y00742D01*
Y00757*
X01635Y0036D02*
X01639Y00364D01*
X006Y0079D02*
Y0081D01*
X0117Y00234D02*
Y00238D01*
X01743Y00123D02*
Y00133D01*
Y00123D02*
X01752Y00114D01*
X0175Y0013D02*
X01755D01*
X01112Y00257D02*
X01112Y00234D01*
X01082Y00318D02*
X01112D01*
X01112Y00269D02*
X01112Y00257D01*
X01112Y00318D02*
X01112Y00269D01*
X00875Y00217D02*
Y00234D01*
X00973Y00226D02*
Y00234D01*
X00977Y00318D02*
X00993D01*
X00986Y00322D02*
X00993Y00318D01*
X00964Y00337D02*
X00986Y00322D01*
X01082Y00541D02*
X01121Y0058D01*
X01476Y00235D02*
X01493D01*
X01555Y00114D02*
Y00152D01*
X01688Y0037D02*
X01699D01*
X01559Y00615D02*
X01564Y0061D01*
G54D29*
X00003Y00102D02*
Y00354D01*
Y00102D02*
X00347D01*
X00003Y00646D02*
Y00899D01*
Y00646D02*
X00052Y00597D01*
Y00403D02*
Y00597D01*
X00003Y00354D02*
X00052Y00403D01*
X00003Y00899D02*
X00347D01*
X00298Y00151D02*
Y0085D01*
X00052D02*
X00298D01*
X00052Y00151D02*
Y0085D01*
Y00151D02*
X00298D01*
X00347Y00102D02*
Y00899D01*
G54D30*
X00845Y0008D03*
X00745D03*
X00645D03*
X00545D03*
X00445D03*
X01475Y0098D03*
X01375D03*
X01075D03*
X01275D03*
X00975D03*
X01175D03*
X01575D03*
X01775D03*
X01875D03*
X01975D03*
X02075D03*
X01675D03*
X01475Y0088D03*
X01375D03*
X01275D03*
X01175D03*
X01075D03*
X02075D03*
X01975D03*
X01875D03*
X01775D03*
X01675D03*
X00945Y0008D03*
X01145D03*
X01245D03*
X01345D03*
X01445D03*
X01045D03*
G54D31*
X0072Y00815D03*
X00546D03*
G54D32*
X00124Y007D03*
Y006D03*
Y005D03*
Y004D03*
Y003D03*
X00224Y005D03*
Y004D03*
Y003D03*
Y007D03*
Y006D03*
G54D33*
X01834Y00443D03*
X02084Y0093D03*
X00265Y00999D03*
X00576Y00429D03*
X00784Y00318D03*
X01914Y00411D03*
X0183Y00335D03*
Y00364D03*
X01842Y00059D03*
X0143Y00415D03*
X01139Y00418D03*
X01702Y00403D03*
X01626Y00253D03*
X01933Y0045D03*
X02023Y00618D03*
X00993Y00279D03*
X01077Y00276D03*
X00784Y00339D03*
X00617Y00242D03*
X00676Y00838D03*
X00601Y00654D03*
X00735Y00965D03*
X00617Y00582D03*
X01702Y00511D03*
X02066Y0062D03*
X00964Y00337D03*
X01681Y00473D03*
X01025Y00681D03*
X00742Y00707D03*
X01407Y00787D03*
X01633D03*
X0099Y00518D03*
X01244Y00464D03*
X018Y006D03*
X01761D03*
X0182Y00482D03*
X01732Y006D03*
X01727Y00576D03*
X018Y00526D03*
X00617Y00635D03*
X0022Y01036D03*
X00774Y00276D03*
X01345Y00522D03*
X01407Y00826D03*
X0126Y0058D03*
Y00709D03*
X01913Y00639D03*
X01769Y0064D03*
X01082Y00318D03*
X00852Y00264D03*
X00842Y00608D03*
X00917Y00797D03*
X01486Y00254D03*
X01635Y0041D03*
X01554Y00482D03*
X0175Y00395D03*
X01766Y00376D03*
X01546Y00338D03*
X01815Y00397D03*
X01755Y0013D03*
X01775Y0044D03*
X0172Y0043D03*
X01655Y00435D03*
X0181Y00675D03*
X00845Y0057D03*
X011Y0056D03*
X01125Y0027D03*
X01275Y0038D03*
X00615Y00825D03*
X01805Y0056D03*
X01815Y007D03*
X00025Y00998D03*
X0103Y00555D03*
Y00595D03*
X0117Y00511D03*
X01092Y00522D03*
X01935Y0054D03*
X00685Y008D03*
X006Y0081D03*
X01415Y00625D03*
X01425Y00585D03*
X01366Y00539D03*
X01208Y00429D03*
X01598Y00476D03*
X01585Y0036D03*
X01594Y00421D03*
X01633Y00511D03*
X01673Y00503D03*
X01665Y00545D03*
X01692Y00679D03*
X01472Y00669D03*
X01456Y00625D03*
X01681Y0059D03*
X01625Y00594D03*
X0161Y00695D03*
X016Y0061D03*
X01407Y00498D03*
X01445Y00493D03*
X01552Y00429D03*
X01466Y0044D03*
X01511Y00417D03*
X01389Y00421D03*
G54D34*
X01476Y0059D03*
X01535Y00551D03*
X01515Y00531D03*
X01535Y00531D03*
X01535Y0057D03*
X01495Y00531D03*
X01515Y0055D03*
X01476Y00551D03*
Y0057D03*
X01495Y0059D03*
Y00551D03*
X01515Y0057D03*
X01495Y0057D03*
X01456Y00551D03*
X01476Y00531D03*
X01515Y0059D03*
X01535Y0059D03*
G54D35*
X00535Y00349D03*
X00578D03*
X0073Y00565D03*
X00728Y00626D03*
X00757Y00597D03*
X00698Y00617D03*
G54D36*
X00705Y0099D03*
X00824D03*
M02*