%FSTAX23Y23*%
%MOIN*%
%SFA1B1*%

%IPPOS*%
%AMD17*
4,1,8,-0.004000,-0.008900,0.004000,-0.008900,0.005900,-0.006900,0.005900,0.006900,0.004000,0.008900,-0.004000,0.008900,-0.005900,0.006900,-0.005900,-0.006900,-0.004000,-0.008900,0.0*
1,1,0.003900,-0.004000,-0.006900*
1,1,0.003900,0.004000,-0.006900*
1,1,0.003900,0.004000,0.006900*
1,1,0.003900,-0.004000,0.006900*
%
%AMD18*
4,1,8,-0.031500,0.017700,-0.031500,-0.017700,-0.029500,-0.019700,0.029500,-0.019700,0.031500,-0.017700,0.031500,0.017700,0.029500,0.019700,-0.029500,0.019700,-0.031500,0.017700,0.0*
1,1,0.003940,-0.029500,0.017700*
1,1,0.003940,-0.029500,-0.017700*
1,1,0.003940,0.029500,-0.017700*
1,1,0.003940,0.029500,0.017700*
%
%ADD10R,0.035430X0.027560*%
%ADD11R,0.027560X0.035430*%
%ADD12R,0.031500X0.031500*%
%ADD13R,0.030320X0.038580*%
%ADD14R,0.027560X0.020470*%
%ADD15R,0.027560X0.041340*%
%ADD16R,0.033470X0.025590*%
G04~CAMADD=17~8~0.0~0.0~118.1~177.2~19.5~0.0~15~0.0~0.0~0.0~0.0~0~0.0~0.0~0.0~0.0~0~0.0~0.0~0.0~180.0~119.0~178.0*
%ADD17D17*%
G04~CAMADD=18~8~0.0~0.0~393.7~629.9~19.7~0.0~15~0.0~0.0~0.0~0.0~0~0.0~0.0~0.0~0.0~0~0.0~0.0~0.0~90.0~630.0~394.0*
%ADD18D18*%
%ADD19R,0.051180X0.011810*%
%ADD20R,0.086610X0.070870*%
%ADD21C,0.013780*%
%ADD22R,0.082680X0.082680*%
%ADD23O,0.011810X0.033470*%
%ADD24O,0.033470X0.011810*%
%ADD25R,0.027560X0.098430*%
%ADD26C,0.010630*%
%ADD27C,0.010240*%
%ADD30C,0.070870*%
%ADD31C,0.035430*%
%ADD32C,0.078740*%
%LNcombine8-1*%
%LPD*%
G54D10*
X00655Y00742D03*
Y00797D03*
X00234Y00943D03*
Y00998D03*
X00054Y00943D03*
Y00998D03*
X00709Y00266D03*
Y00211D03*
Y00321D03*
Y00376D03*
X01434Y0034D03*
Y00285D03*
X00649Y00211D03*
Y00266D03*
Y00376D03*
Y00321D03*
X01811Y00114D03*
Y00059D03*
X01752D03*
Y00114D03*
X01555D03*
Y00059D03*
X01171Y00179D03*
Y00234D03*
X00934Y00179D03*
Y00234D03*
X00993Y00179D03*
Y00234D03*
X01052Y00179D03*
Y00234D03*
X01112Y00179D03*
Y00234D03*
X00816Y00374D03*
Y00318D03*
X00875Y00372D03*
Y00316D03*
X00816Y00179D03*
Y00234D03*
X00875Y00179D03*
Y00234D03*
X01494Y00338D03*
Y00283D03*
X00605Y00795D03*
Y0074D03*
G54D11*
X01531Y0022D03*
X01476D03*
X00576Y00459D03*
X00521D03*
X0135Y00177D03*
X01405D03*
X01287D03*
X01232D03*
G54D12*
X00114Y0099D03*
Y00947D03*
X00174Y0099D03*
Y00947D03*
G54D13*
X01625Y00146D03*
X01682D03*
X01349Y00236D03*
X01405D03*
X01287D03*
X01231D03*
X00529Y00219D03*
X00585D03*
G54D14*
X00993Y0037D03*
X01052D03*
X01112D03*
X00934D03*
G54D15*
X00993Y00334D03*
X01052D03*
X01112D03*
X00934D03*
G54D16*
X01699Y00292D03*
X01646D03*
X01699Y00357D03*
X01646D03*
G54D17*
X00531Y0031D03*
X00556D03*
X00582D03*
Y00387D03*
X00556D03*
X00531D03*
G54D18*
X00556Y00349D03*
G54D19*
X01874Y00226D03*
Y00246D03*
Y00265D03*
Y00285D03*
Y00305D03*
Y00324D03*
Y00344D03*
Y00364D03*
Y00383D03*
Y00403D03*
Y00423D03*
Y00442D03*
Y00462D03*
Y00482D03*
Y00501D03*
Y00521D03*
Y00541D03*
Y00561D03*
Y0058D03*
Y006D03*
Y0062D03*
Y00639D03*
Y00659D03*
Y00679D03*
G54D20*
X02002Y00151D03*
Y00753D03*
G54D21*
X01161Y00698D03*
Y00659D03*
X01121Y0062D03*
Y0058D03*
Y00541D03*
X01082Y00698D03*
Y0062D03*
Y0058D03*
Y00541D03*
X01043Y00698D03*
Y00659D03*
Y0062D03*
Y0058D03*
Y00541D03*
X01003Y00698D03*
Y00659D03*
Y0062D03*
Y0058D03*
Y00541D03*
X01121Y00698D03*
Y00659D03*
X01082D03*
X01161Y0062D03*
Y0058D03*
Y00541D03*
G54D22*
X0073Y00595D03*
G54D23*
X00768Y00676D03*
X00742D03*
X00717D03*
X00691D03*
Y00513D03*
X00717D03*
X00742D03*
X00768D03*
G54D24*
X00648Y00633D03*
Y00607D03*
Y00582D03*
Y00556D03*
X00811D03*
Y00582D03*
Y00607D03*
Y00633D03*
G54D25*
X00853Y00901D03*
X00735D03*
X00676D03*
G54D26*
X01456Y0061D03*
X01476D03*
X01495D03*
X01515D03*
X01535D03*
X01554D03*
X01456Y0059D03*
X01476D03*
X01495D03*
X01515D03*
X01535D03*
X01554D03*
X01456Y0057D03*
X01476D03*
X01495D03*
X01515D03*
X01535D03*
X01554D03*
X01456Y00551D03*
X01476D03*
X01495D03*
X01515D03*
X01535D03*
X01554D03*
X01456Y00531D03*
X01476D03*
X01495D03*
X01515D03*
X01535D03*
X01554D03*
X01456Y00511D03*
X01476D03*
X01495D03*
X01515D03*
X01535D03*
X01554D03*
G54D27*
X01637Y00057D03*
Y00077D03*
X01654Y00067D03*
X01671Y00057D03*
Y00077D03*
G54D30*
X00845Y0008D03*
X00745D03*
X00645D03*
X00545D03*
X00445D03*
X01475Y0098D03*
X01375D03*
X01075D03*
X01275D03*
X00975D03*
X01175D03*
X01575D03*
X01775D03*
X01875D03*
X01975D03*
X02075D03*
X01675D03*
X01475Y0088D03*
X01375D03*
X01275D03*
X01175D03*
X01075D03*
X02075D03*
X01975D03*
X01875D03*
X01775D03*
X01675D03*
X00945Y0008D03*
X01145D03*
X01245D03*
X01345D03*
X01445D03*
X01045D03*
G54D31*
X0072Y00815D03*
X00546D03*
G54D32*
X00124Y007D03*
Y006D03*
Y005D03*
Y004D03*
Y003D03*
X00224Y005D03*
Y004D03*
Y003D03*
Y007D03*
Y006D03*
M02*