%FSTAX23Y23*%
%MOIN*%
%SFA1B1*%

%IPPOS*%
%AMD38*
4,1,8,-0.009800,0.050200,-0.009800,-0.050200,-0.004900,-0.055100,0.004900,-0.055100,0.009800,-0.050200,0.009800,0.050200,0.004900,0.055100,-0.004900,0.055100,-0.009800,0.050200,0.0*
1,1,0.009840,-0.004900,0.050200*
1,1,0.009840,-0.004900,-0.050200*
1,1,0.009840,0.004900,-0.050200*
1,1,0.009840,0.004900,0.050200*
%
%AMD39*
4,1,8,-0.040400,0.048700,-0.040400,-0.048700,-0.020200,-0.068900,0.020200,-0.068900,0.040400,-0.048700,0.040400,0.048700,0.020200,0.068900,-0.020200,0.068900,-0.040400,0.048700,0.0*
1,1,0.040360,-0.020200,0.048700*
1,1,0.040360,-0.020200,-0.048700*
1,1,0.040360,0.020200,-0.048700*
1,1,0.040360,0.020200,0.048700*
%
%AMD40*
4,1,8,-0.040400,0.058600,-0.040400,-0.058600,-0.020200,-0.078700,0.020200,-0.078700,0.040400,-0.058600,0.040400,0.058600,0.020200,0.078700,-0.020200,0.078700,-0.040400,0.058600,0.0*
1,1,0.040360,-0.020200,0.058600*
1,1,0.040360,-0.020200,-0.058600*
1,1,0.040360,0.020200,-0.058600*
1,1,0.040360,0.020200,0.058600*
%
%AMD41*
4,1,8,-0.040400,0.048700,-0.040400,-0.048700,-0.020200,-0.068900,0.020200,-0.068900,0.040400,-0.048700,0.040400,0.048700,0.020200,0.068900,-0.020200,0.068900,-0.040400,0.048700,0.0*
1,1,0.040360,-0.020200,0.048700*
1,1,0.040360,-0.020200,-0.048700*
1,1,0.040360,0.020200,-0.048700*
1,1,0.040360,0.020200,0.048700*
%
%ADD10R,0.035430X0.027560*%
%ADD11R,0.027560X0.035430*%
%ADD30C,0.070870*%
%ADD31C,0.035430*%
%ADD32C,0.078740*%
G04~CAMADD=38~8~0.0~0.0~1102.4~196.9~49.2~0.0~15~0.0~0.0~0.0~0.0~0~0.0~0.0~0.0~0.0~0~0.0~0.0~0.0~90.0~196.0~1102.0*
%ADD38D38*%
G04~CAMADD=39~8~0.0~0.0~1378.0~807.1~201.8~0.0~15~0.0~0.0~0.0~0.0~0~0.0~0.0~0.0~0.0~0~0.0~0.0~0.0~90.0~808.0~1379.0*
%ADD39D39*%
G04~CAMADD=40~8~0.0~0.0~1574.8~807.1~201.8~0.0~15~0.0~0.0~0.0~0.0~0~0.0~0.0~0.0~0.0~0~0.0~0.0~0.0~90.0~808.0~1575.0*
%ADD40D40*%
G04~CAMADD=41~8~0.0~0.0~1378.0~807.1~201.8~0.0~15~0.0~0.0~0.0~0.0~0~0.0~0.0~0.0~0.0~0~0.0~0.0~0.0~90.0~808.0~1379.0*
%ADD41D41*%
%LNcombine8-1*%
%LPD*%
G54D10*
X01606Y00578D03*
Y00523D03*
Y0048D03*
Y00425D03*
X01407Y00525D03*
Y0047D03*
X01405Y00566D03*
Y00622D03*
G54D11*
X01456Y00661D03*
X01511D03*
X01492Y00433D03*
X01437D03*
G54D30*
X00845Y0008D03*
X00745D03*
X00645D03*
X00545D03*
X00445D03*
X01475Y0098D03*
X01375D03*
X01075D03*
X01275D03*
X00975D03*
X01175D03*
X01575D03*
X01775D03*
X01875D03*
X01975D03*
X02075D03*
X01675D03*
X01475Y0088D03*
X01375D03*
X01275D03*
X01175D03*
X01075D03*
X02075D03*
X01975D03*
X01875D03*
X01775D03*
X01675D03*
X00945Y0008D03*
X01145D03*
X01245D03*
X01345D03*
X01445D03*
X01045D03*
G54D31*
X0072Y00815D03*
X00546D03*
G54D32*
X00124Y007D03*
Y006D03*
Y005D03*
Y004D03*
Y003D03*
X00224Y005D03*
Y004D03*
Y003D03*
Y007D03*
Y006D03*
G54D38*
X00633Y00723D03*
X00696D03*
X00664D03*
X0057D03*
X00601D03*
G54D39*
X00827Y00722D03*
G54D40*
X00827Y00889D03*
X00439D03*
G54D41*
X00439Y00722D03*
M02*